<svg xmlns="http://www.w3.org/2000/svg" xmlns:xlink="http://www.w3.org/1999/xlink" width="980" height="515.91"><rect width="980" height="515.91" rx="5" ry="5" class="a"/><svg y="0%" x="0%"><circle cx="20" cy="20" r="6" fill="#ff5f58"/><circle cx="40" cy="20" r="6" fill="#ffbd2e"/><circle cx="60" cy="20" r="6" fill="#18c132"/></svg><svg height="455.91" viewBox="0 0 94 45.591" width="940" x="15" xmlns="http://www.w3.org/2000/svg" xmlns:xlink="http://www.w3.org/1999/xlink" y="50"><style>@keyframes n{0%{transform:translateX(0)}5.72%{transform:translateX(-188px)}6.46%{transform:translateX(-376px)}13.81%{transform:translateX(-470px)}14.2%{transform:translateX(-564px)}15.11%{transform:translateX(-658px)}16.48%{transform:translateX(-752px)}18.04%{transform:translateX(-846px)}20.5%{transform:translateX(-940px)}25.23%{transform:translateX(-1128px)}25.24%{transform:translateX(-1222px)}25.26%{transform:translateX(-1598px)}25.97%{transform:translateX(-1692px)}25.98%{transform:translateX(-1786px)}34.78%{transform:translateX(-1880px)}35.27%{transform:translateX(-1974px)}36.07%{transform:translateX(-2068px)}36.83%{transform:translateX(-2162px)}37.21%{transform:translateX(-2256px)}45.67%{transform:translateX(-2350px)}45.68%{transform:translateX(-2444px)}49.61%{transform:translateX(-2632px)}49.62%{transform:translateX(-2914px)}50.68%{transform:translateX(-3102px)}53.06%{transform:translateX(-3384px)}53.98%{transform:translateX(-3572px)}61.23%{transform:translateX(-3760px)}62.08%{transform:translateX(-3948px)}64.33%{transform:translateX(-4042px)}69.42%{transform:translateX(-4136px)}70.55%{transform:translateX(-4230px)}71.11%{transform:translateX(-4324px)}75.86%{transform:translateX(-4700px)}79.6%{transform:translateX(-5076px)}81.7%{transform:translateX(-5358px)}82.99%{transform:translateX(-5546px)}83.89%{transform:translateX(-5734px)}85.16%{transform:translateX(-5828px)}85.17%{transform:translateX(-5922px)}86.86%{transform:translateX(-6110px)}89.72%{transform:translateX(-6204px)}96.47%{transform:translateX(-6298px)}to{transform:translateX(-6392px)}}.a{fill:#282d35}.i{fill:#b9bfca}.k{fill:#b9c0cb}</style><g font-size="1.67" font-family="Monaco,Consolas,Menlo,'Bitstream Vera Sans Mono','Powerline Symbols',monospace"><defs><symbol id="1"><text y="1.67" fill="#71bef2" font-weight="700">edam/packages/edam-completer</text><text x="30.06" y="1.67" fill="#a8cc8c">master</text><text x="37.074" y="1.67" fill="#e88388">✗</text><text x="87.174" y="1.67" class="i">5m</text><text x="90.18" y="1.67" fill="#dbab79">⚑</text></symbol><symbol id="2"><text y="1.67" class="i">▶</text></symbol><symbol id="3"><text y="1.67" class="i">▶</text><text x="2.004" y="1.67" class="k">cat</text></symbol><symbol id="4"><text y="1.67" class="i">▶</text><text x="2.004" y="1.67" class="k">cat</text><text x="6.012" y="1.67" class="k">~/.edamrc</text></symbol><symbol id="5"><text y="1.67" class="k">{</text></symbol><symbol id="6"><text x="2.004" y="1.67" class="k">&quot;source&quot;:</text><text x="12.024" y="1.67" class="k">&quot;npm&quot;,</text></symbol><symbol id="7"><text x="2.004" y="1.67" class="k">alias:</text><text x="9.018" y="1.67" class="k">{</text></symbol><symbol id="8"><text x="4.008" y="1.67" class="k">&quot;react&quot;:</text><text x="13.026" y="1.67" class="k">&quot;facebook/react&quot;,</text></symbol><symbol id="9"><text x="4.008" y="1.67" class="k">&quot;vue&quot;:</text><text x="11.022" y="1.67" class="k">&quot;vue&quot;,</text></symbol><symbol id="10"><text x="4.008" y="1.67" class="k">&quot;file&quot;:</text><text x="12.024" y="1.67" class="k">&quot;./package.json&quot;</text></symbol><symbol id="11"><text x="2.004" y="1.67" class="k">}</text></symbol><symbol id="12"><text y="1.67" class="k">}</text></symbol><symbol id="13"><text y="1.67" class="i">▶</text><text x="2.004" y="1.67" class="k">edam</text></symbol><symbol id="14"><text y="1.67" class="k">file</text><text x="9.018" y="1.67" class="k">--</text><text x="12.024" y="1.67" class="k">file</text><text x="17.034" y="1.67" class="k">-&gt;</text><text x="20.04" y="1.67" class="k">~/self/edam/packages/edam-completer/package.json</text></symbol><symbol id="15"><text y="1.67" class="k">picidae</text><text x="9.018" y="1.67" class="k">--</text><text x="12.024" y="1.67" class="k">git</text><text x="16.032" y="1.67" class="k">-&gt;</text><text x="19.038" y="1.67" class="k">//github.com/picidaejs/picidaejs.git</text></symbol><symbol id="16"><text y="1.67" class="k">react</text><text x="9.018" y="1.67" class="k">--</text><text x="12.024" y="1.67" class="k">git</text><text x="16.032" y="1.67" class="k">-&gt;</text><text x="19.038" y="1.67" class="k">//github.com/facebook/react.git</text></symbol><symbol id="17"><text y="1.67" class="k">vue</text><text x="9.018" y="1.67" class="k">--</text><text x="12.024" y="1.67" class="k">npm</text><text x="16.032" y="1.67" class="k">-&gt;</text><text x="19.038" y="1.67" class="k">vue</text></symbol><symbol id="18"><text y="1.67" class="i">▶</text><text x="2.004" y="1.67" class="k">edam</text><text x="7.014" y="1.67" class="k">file</text></symbol><symbol id="19"><text y="1.67" class="i">▶</text><text x="2.004" y="1.67" class="k">edam</text><text x="7.014" y="1.67" class="k">picidae</text></symbol><symbol id="20"><text y="1.67" class="i">▶</text><text x="2.004" y="1.67" class="k">edam</text><text x="7.014" y="1.67" class="k">react</text></symbol><symbol id="21"><path class="k" d="M0 0h94v2.171H0z"/><text y="1.67" class="a">picidae -- git -&gt; //github.com/picidaejs/picidaejs.git</text></symbol><symbol id="22"><path class="k" d="M0 0h94v2.171H0z"/><text y="1.67" class="a">react -- git -&gt; //github.com/facebook/react.git</text></symbol><symbol id="23"><text y="1.67" class="i">▶</text><text x="2.004" y="1.67" class="k">edam</text><text x="7.014" y="1.67" class="k">vue</text></symbol><symbol id="24"><path class="k" d="M0 0h94v2.171H0z"/><text y="1.67" class="a">vue -- npm -&gt; vue</text></symbol><symbol id="25"><text y="1.67" class="i">▶</text><text x="2.004" y="1.67" class="k">edam</text><text x="7.014" y="1.67" class="k">vue</text><text x="11.022" y="1.67" class="k">-o</text></symbol><symbol id="26"><text y="1.67" class="k">completer.js</text><text x="19.038" y="1.67" class="k">Readme.md</text><text x="34.068" y="1.67" class="k">demo.svg</text></symbol><symbol id="27"><text y="1.67" class="k">package-lock.json</text><text x="19.038" y="1.67" class="k">node_modules/</text></symbol><symbol id="28"><text y="1.67" class="k">package.json</text><text x="44.088" y="1.67" class="k">--</text></symbol><symbol id="29"><text y="1.67" class="i">▶</text><text x="2.004" y="1.67" class="k">edam</text><text x="7.014" y="1.67" class="k">vue</text><text x="11.022" y="1.67" class="k">-o</text><text x="14.028" y="1.67" class="k">completer.js</text></symbol><symbol id="30"><path class="k" d="M0 0h17v2.171H0z"/><text y="1.67" class="a">completer.js</text><text x="19.038" y="1.67" class="k">Readme.md</text><text x="34.068" y="1.67" class="k">demo.svg</text></symbol><symbol id="31"><text y="1.67" class="i">▶</text><text x="2.004" y="1.67" class="k">edam</text><text x="7.014" y="1.67" class="k">vue</text><text x="11.022" y="1.67" class="k">-o</text><text x="14.028" y="1.67" class="k">package-lock.json</text></symbol><symbol id="32"><path class="k" d="M0 0h17v2.171H0z"/><text y="1.67" class="a">package-lock.json</text><text x="19.038" y="1.67" class="k">node_modules/</text></symbol><symbol id="33"><text y="1.67" class="i">▶</text><text x="2.004" y="1.67" class="k">edam</text><text x="7.014" y="1.67" class="k">vue</text><text x="11.022" y="1.67" class="k">-o</text><text x="14.028" y="1.67" class="k">package.json</text></symbol><symbol id="34"><path class="k" d="M0 0h17v2.171H0z"/><text y="1.67" class="a">package.json</text><text x="44.088" y="1.67" class="k">--</text></symbol><symbol id="a"><path fill="transparent" d="M0 0h94v21H0z"/></symbol><symbol id="b"><path fill="#6f7683" d="M0 0h1.102v2.171H0z"/></symbol></defs><path class="a" d="M0 0h94v45.591H0z"/><g style="animation-duration:22.131366s;animation-iteration-count:infinite;animation-name:n;animation-timing-function:steps(1,end)"><svg width="6486"><svg><use xlink:href="#a"/><use xlink:href="#b" x="-.004"/></svg><svg x="94"><use xlink:href="#a"/><use xlink:href="#b" x="-.004"/></svg><svg x="188"><use xlink:href="#a"/><use xlink:href="#b" x="-.004"/></svg><svg x="282"><use xlink:href="#a"/><use xlink:href="#b" x="1.996" y="4.317"/><use xlink:href="#1" y="2.171"/><use xlink:href="#2" y="4.342"/></svg><svg x="376"><use xlink:href="#a"/><use xlink:href="#b" x="1.996" y="4.317"/><use xlink:href="#1" y="2.171"/><use xlink:href="#2" y="4.342"/></svg><svg x="470"><use xlink:href="#a"/><use xlink:href="#b" x="2.996" y="4.317"/><use xlink:href="#1" y="2.171"/><text y="6.012" class="i">▶</text><text x="2.004" y="6.012" class="k">c</text></svg><svg x="564"><use xlink:href="#a"/><use xlink:href="#b" x="3.996" y="4.317"/><use xlink:href="#1" y="2.171"/><text y="6.012" class="i">▶</text><text x="2.004" y="6.012" class="k">ca</text></svg><svg x="658"><use xlink:href="#a"/><use xlink:href="#b" x="4.996" y="4.317"/><use xlink:href="#1" y="2.171"/><use xlink:href="#3" y="4.342"/></svg><svg x="752"><use xlink:href="#a"/><use xlink:href="#b" x="5.996" y="4.317"/><use xlink:href="#1" y="2.171"/><use xlink:href="#3" y="4.342"/></svg><svg x="846"><use xlink:href="#a"/><use xlink:href="#b" x="17.996" y="6.488"/><use xlink:href="#1" y="2.171"/><text y="6.012" class="i">▶</text><text x="2.004" y="6.012" class="k">cat</text><text x="6.012" y="6.012" class="k">/var/folders/lx/81lj1yls495frprh_dp0bcp8gn06f4/T/tmppb1qc97w-ascii.cast</text><text x="78.156" y="6.012" class="k">|</text><text x="80.16" y="6.012" class="k">svg-term</text><text x="89.178" y="6.012" class="k">--win</text><text y="8.183" class="k">dow</text><text x="4.008" y="8.183" class="k">--out</text><text x="10.02" y="8.183" class="k">demo.svg</text></svg><svg x="940"><use xlink:href="#a"/><use xlink:href="#b" x="14.996" y="4.317"/><use xlink:href="#1" y="2.171"/><use xlink:href="#4" y="4.342"/></svg><svg x="1034"><use xlink:href="#a"/><use xlink:href="#b" x="14.996" y="4.317"/><use xlink:href="#1" y="2.171"/><use xlink:href="#4" y="4.342"/></svg><svg x="1128"><use xlink:href="#a"/><use xlink:href="#b" x="-.004" y="6.488"/><use xlink:href="#1" y="2.171"/><use xlink:href="#4" y="4.342"/></svg><svg x="1222"><use xlink:href="#a"/><use xlink:href="#b" x="-.004" y="6.488"/><use xlink:href="#1" y="2.171"/><use xlink:href="#4" y="4.342"/></svg><svg x="1316"><use xlink:href="#a"/><use xlink:href="#b" x="-.004" y="26.027"/><use xlink:href="#1" y="2.171"/><use xlink:href="#4" y="4.342"/><use xlink:href="#5" y="6.513"/><use xlink:href="#6" y="8.684"/><use xlink:href="#7" y="10.855"/><use xlink:href="#8" y="13.026"/><use xlink:href="#9" y="15.197"/><use xlink:href="#10" y="17.368"/><use xlink:href="#11" y="19.539"/><use xlink:href="#12" y="21.71"/></svg><svg x="1410"><use xlink:href="#a"/><use xlink:href="#b" x="-.004" y="26.027"/><use xlink:href="#1" y="2.171"/><use xlink:href="#4" y="4.342"/><use xlink:href="#5" y="6.513"/><use xlink:href="#6" y="8.684"/><use xlink:href="#7" y="10.855"/><use xlink:href="#8" y="13.026"/><use xlink:href="#9" y="15.197"/><use xlink:href="#10" y="17.368"/><use xlink:href="#11" y="19.539"/><use xlink:href="#12" y="21.71"/></svg><svg x="1504"><use xlink:href="#a"/><use xlink:href="#b" x="-.004" y="26.027"/><use xlink:href="#1" y="2.171"/><use xlink:href="#4" y="4.342"/><use xlink:href="#5" y="6.513"/><use xlink:href="#6" y="8.684"/><use xlink:href="#7" y="10.855"/><use xlink:href="#8" y="13.026"/><use xlink:href="#9" y="15.197"/><use xlink:href="#10" y="17.368"/><use xlink:href="#11" y="19.539"/><use xlink:href="#12" y="21.71"/></svg><svg x="1598"><use xlink:href="#a"/><use xlink:href="#b" x="-.004" y="26.027"/><use xlink:href="#1" y="2.171"/><use xlink:href="#4" y="4.342"/><use xlink:href="#5" y="6.513"/><use xlink:href="#6" y="8.684"/><use xlink:href="#7" y="10.855"/><use xlink:href="#8" y="13.026"/><use xlink:href="#9" y="15.197"/><use xlink:href="#10" y="17.368"/><use xlink:href="#11" y="19.539"/><use xlink:href="#12" y="21.71"/></svg><svg x="1692"><use xlink:href="#a"/><use xlink:href="#b" x="1.996" y="30.369"/><use xlink:href="#1" y="2.171"/><use xlink:href="#4" y="4.342"/><use xlink:href="#5" y="6.513"/><use xlink:href="#6" y="8.684"/><use xlink:href="#7" y="10.855"/><use xlink:href="#8" y="13.026"/><use xlink:href="#9" y="15.197"/><use xlink:href="#10" y="17.368"/><use xlink:href="#11" y="19.539"/><use xlink:href="#12" y="21.71"/><use xlink:href="#1" y="28.223"/><use xlink:href="#2" y="30.394"/></svg><svg x="1786"><use xlink:href="#a"/><use xlink:href="#b" x="1.996" y="30.369"/><use xlink:href="#1" y="2.171"/><use xlink:href="#4" y="4.342"/><use xlink:href="#5" y="6.513"/><use xlink:href="#6" y="8.684"/><use xlink:href="#7" y="10.855"/><use xlink:href="#8" y="13.026"/><use xlink:href="#9" y="15.197"/><use xlink:href="#10" y="17.368"/><use xlink:href="#11" y="19.539"/><use xlink:href="#12" y="21.71"/><use xlink:href="#1" y="28.223"/><use xlink:href="#2" y="30.394"/></svg><svg x="1880"><use xlink:href="#a"/><use xlink:href="#b" x="2.996" y="30.369"/><use xlink:href="#1" y="2.171"/><use xlink:href="#4" y="4.342"/><use xlink:href="#5" y="6.513"/><use xlink:href="#6" y="8.684"/><use xlink:href="#7" y="10.855"/><use xlink:href="#8" y="13.026"/><use xlink:href="#9" y="15.197"/><use xlink:href="#10" y="17.368"/><use xlink:href="#11" y="19.539"/><use xlink:href="#12" y="21.71"/><use xlink:href="#1" y="28.223"/><text y="32.064" class="i">▶</text><text x="2.004" y="32.064" class="k">e</text></svg><svg x="1974"><use xlink:href="#a"/><use xlink:href="#b" x="3.996" y="30.369"/><use xlink:href="#1" y="2.171"/><use xlink:href="#4" y="4.342"/><use xlink:href="#5" y="6.513"/><use xlink:href="#6" y="8.684"/><use xlink:href="#7" y="10.855"/><use xlink:href="#8" y="13.026"/><use xlink:href="#9" y="15.197"/><use xlink:href="#10" y="17.368"/><use xlink:href="#11" y="19.539"/><use xlink:href="#12" y="21.71"/><use xlink:href="#1" y="28.223"/><text y="32.064" class="i">▶</text><text x="2.004" y="32.064" class="k">ed</text></svg><svg x="2068"><use xlink:href="#a"/><use xlink:href="#b" x="4.996" y="30.369"/><use xlink:href="#1" y="2.171"/><use xlink:href="#4" y="4.342"/><use xlink:href="#5" y="6.513"/><use xlink:href="#6" y="8.684"/><use xlink:href="#7" y="10.855"/><use xlink:href="#8" y="13.026"/><use xlink:href="#9" y="15.197"/><use xlink:href="#10" y="17.368"/><use xlink:href="#11" y="19.539"/><use xlink:href="#12" y="21.71"/><use xlink:href="#1" y="28.223"/><text y="32.064" class="i">▶</text><text x="2.004" y="32.064" class="k">eda</text></svg><svg x="2162"><use xlink:href="#a"/><use xlink:href="#b" x="5.996" y="30.369"/><use xlink:href="#1" y="2.171"/><use xlink:href="#4" y="4.342"/><use xlink:href="#5" y="6.513"/><use xlink:href="#6" y="8.684"/><use xlink:href="#7" y="10.855"/><use xlink:href="#8" y="13.026"/><use xlink:href="#9" y="15.197"/><use xlink:href="#10" y="17.368"/><use xlink:href="#11" y="19.539"/><use xlink:href="#12" y="21.71"/><use xlink:href="#1" y="28.223"/><use xlink:href="#13" y="30.394"/></svg><svg x="2256"><use xlink:href="#a"/><use xlink:href="#b" x="6.996" y="30.369"/><use xlink:href="#1" y="2.171"/><use xlink:href="#4" y="4.342"/><use xlink:href="#5" y="6.513"/><use xlink:href="#6" y="8.684"/><use xlink:href="#7" y="10.855"/><use xlink:href="#8" y="13.026"/><use xlink:href="#9" y="15.197"/><use xlink:href="#10" y="17.368"/><use xlink:href="#11" y="19.539"/><use xlink:href="#12" y="21.71"/><use xlink:href="#1" y="28.223"/><use xlink:href="#13" y="30.394"/></svg><svg x="2350"><use xlink:href="#a"/><use xlink:href="#b" x="-.004" y="32.54"/><use xlink:href="#1" y="2.171"/><use xlink:href="#4" y="4.342"/><use xlink:href="#5" y="6.513"/><use xlink:href="#6" y="8.684"/><use xlink:href="#7" y="10.855"/><use xlink:href="#8" y="13.026"/><use xlink:href="#9" y="15.197"/><use xlink:href="#10" y="17.368"/><use xlink:href="#11" y="19.539"/><use xlink:href="#12" y="21.71"/><use xlink:href="#1" y="28.223"/><use xlink:href="#13" y="30.394"/></svg><svg x="2444"><use xlink:href="#a"/><use xlink:href="#b" x="6.996" y="30.369"/><use xlink:href="#1" y="2.171"/><use xlink:href="#4" y="4.342"/><use xlink:href="#5" y="6.513"/><use xlink:href="#6" y="8.684"/><use xlink:href="#7" y="10.855"/><use xlink:href="#8" y="13.026"/><use xlink:href="#9" y="15.197"/><use xlink:href="#10" y="17.368"/><use xlink:href="#11" y="19.539"/><use xlink:href="#12" y="21.71"/><use xlink:href="#1" y="28.223"/><use xlink:href="#13" y="30.394"/><use xlink:href="#14" y="32.565"/><use xlink:href="#15" y="34.736"/><use xlink:href="#16" y="36.907"/><use xlink:href="#17" y="39.078"/></svg><svg x="2538"><use xlink:href="#a"/><use xlink:href="#b" x="-.004" y="32.54"/><use xlink:href="#1" y="2.171"/><use xlink:href="#4" y="4.342"/><use xlink:href="#5" y="6.513"/><use xlink:href="#6" y="8.684"/><use xlink:href="#7" y="10.855"/><use xlink:href="#8" y="13.026"/><use xlink:href="#9" y="15.197"/><use xlink:href="#10" y="17.368"/><use xlink:href="#11" y="19.539"/><use xlink:href="#12" y="21.71"/><use xlink:href="#1" y="28.223"/><use xlink:href="#18" y="30.394"/><use xlink:href="#14" y="32.565"/><use xlink:href="#15" y="34.736"/><use xlink:href="#16" y="36.907"/><use xlink:href="#17" y="39.078"/></svg><svg x="2632"><use xlink:href="#a"/><use xlink:href="#b" x="-.004" y="32.54"/><use xlink:href="#1" y="2.171"/><use xlink:href="#4" y="4.342"/><use xlink:href="#5" y="6.513"/><use xlink:href="#6" y="8.684"/><use xlink:href="#7" y="10.855"/><use xlink:href="#8" y="13.026"/><use xlink:href="#9" y="15.197"/><use xlink:href="#10" y="17.368"/><use xlink:href="#11" y="19.539"/><use xlink:href="#12" y="21.71"/><use xlink:href="#1" y="28.223"/><use xlink:href="#18" y="30.394"/><path class="k" d="M0 32.565h68v2.171H0z"/><text y="34.235" class="a">file -- file -&gt; ~/self/edam/packages/edam-completer/package.json</text><use xlink:href="#15" y="34.736"/><use xlink:href="#16" y="36.907"/><use xlink:href="#17" y="39.078"/></svg><svg x="2726"><use xlink:href="#a"/><use xlink:href="#b" x="-.004" y="32.54"/><use xlink:href="#1" y="2.171"/><use xlink:href="#4" y="4.342"/><use xlink:href="#5" y="6.513"/><use xlink:href="#6" y="8.684"/><use xlink:href="#7" y="10.855"/><use xlink:href="#8" y="13.026"/><use xlink:href="#9" y="15.197"/><use xlink:href="#10" y="17.368"/><use xlink:href="#11" y="19.539"/><use xlink:href="#12" y="21.71"/><use xlink:href="#1" y="28.223"/><use xlink:href="#19" y="30.394"/><path class="k" d="M0 32.565h94v2.171H0z"/><text y="34.235" class="a">file -- file -&gt; ~/self/edam/packages/edam-completer/package.json</text><use xlink:href="#15" y="34.736"/><use xlink:href="#16" y="36.907"/><use xlink:href="#17" y="39.078"/></svg><svg x="2820"><use xlink:href="#a"/><use xlink:href="#b" x="-.004" y="32.54"/><use xlink:href="#1" y="2.171"/><use xlink:href="#4" y="4.342"/><use xlink:href="#5" y="6.513"/><use xlink:href="#6" y="8.684"/><use xlink:href="#7" y="10.855"/><use xlink:href="#8" y="13.026"/><use xlink:href="#9" y="15.197"/><use xlink:href="#10" y="17.368"/><use xlink:href="#11" y="19.539"/><use xlink:href="#12" y="21.71"/><use xlink:href="#1" y="28.223"/><use xlink:href="#20" y="30.394"/><use xlink:href="#14" y="32.565"/><use xlink:href="#21" y="34.736"/><use xlink:href="#16" y="36.907"/><use xlink:href="#17" y="39.078"/></svg><svg x="2914"><use xlink:href="#a"/><use xlink:href="#b" x="11.996" y="30.369"/><use xlink:href="#1" y="2.171"/><use xlink:href="#4" y="4.342"/><use xlink:href="#5" y="6.513"/><use xlink:href="#6" y="8.684"/><use xlink:href="#7" y="10.855"/><use xlink:href="#8" y="13.026"/><use xlink:href="#9" y="15.197"/><use xlink:href="#10" y="17.368"/><use xlink:href="#11" y="19.539"/><use xlink:href="#12" y="21.71"/><use xlink:href="#1" y="28.223"/><use xlink:href="#20" y="30.394"/><use xlink:href="#14" y="32.565"/><use xlink:href="#15" y="34.736"/><use xlink:href="#22" y="36.907"/><use xlink:href="#17" y="39.078"/></svg><svg x="3008"><use xlink:href="#a"/><use xlink:href="#b" x="-.004" y="32.54"/><use xlink:href="#1" y="2.171"/><use xlink:href="#4" y="4.342"/><use xlink:href="#5" y="6.513"/><use xlink:href="#6" y="8.684"/><use xlink:href="#7" y="10.855"/><use xlink:href="#8" y="13.026"/><use xlink:href="#9" y="15.197"/><use xlink:href="#10" y="17.368"/><use xlink:href="#11" y="19.539"/><use xlink:href="#12" y="21.71"/><use xlink:href="#1" y="28.223"/><use xlink:href="#23" y="30.394"/><use xlink:href="#14" y="32.565"/><use xlink:href="#15" y="34.736"/><use xlink:href="#22" y="36.907"/><use xlink:href="#17" y="39.078"/></svg><svg x="3102"><use xlink:href="#a"/><use xlink:href="#b" x="9.996" y="30.369"/><use xlink:href="#1" y="2.171"/><use xlink:href="#4" y="4.342"/><use xlink:href="#5" y="6.513"/><use xlink:href="#6" y="8.684"/><use xlink:href="#7" y="10.855"/><use xlink:href="#8" y="13.026"/><use xlink:href="#9" y="15.197"/><use xlink:href="#10" y="17.368"/><use xlink:href="#11" y="19.539"/><use xlink:href="#12" y="21.71"/><use xlink:href="#1" y="28.223"/><use xlink:href="#23" y="30.394"/><use xlink:href="#14" y="32.565"/><use xlink:href="#15" y="34.736"/><use xlink:href="#16" y="36.907"/><use xlink:href="#24" y="39.078"/></svg><svg x="3196"><use xlink:href="#a"/><use xlink:href="#b" x="11.996" y="30.369"/><use xlink:href="#1" y="2.171"/><use xlink:href="#4" y="4.342"/><use xlink:href="#5" y="6.513"/><use xlink:href="#6" y="8.684"/><use xlink:href="#7" y="10.855"/><use xlink:href="#8" y="13.026"/><use xlink:href="#9" y="15.197"/><use xlink:href="#10" y="17.368"/><use xlink:href="#11" y="19.539"/><use xlink:href="#12" y="21.71"/><use xlink:href="#1" y="28.223"/><use xlink:href="#20" y="30.394"/><use xlink:href="#14" y="32.565"/><use xlink:href="#15" y="34.736"/><use xlink:href="#16" y="36.907"/><use xlink:href="#24" y="39.078"/></svg><svg x="3290"><use xlink:href="#a"/><use xlink:href="#b" x="-.004" y="32.54"/><use xlink:href="#1" y="2.171"/><use xlink:href="#4" y="4.342"/><use xlink:href="#5" y="6.513"/><use xlink:href="#6" y="8.684"/><use xlink:href="#7" y="10.855"/><use xlink:href="#8" y="13.026"/><use xlink:href="#9" y="15.197"/><use xlink:href="#10" y="17.368"/><use xlink:href="#11" y="19.539"/><use xlink:href="#12" y="21.71"/><use xlink:href="#1" y="28.223"/><use xlink:href="#20" y="30.394"/><use xlink:href="#14" y="32.565"/><use xlink:href="#15" y="34.736"/><use xlink:href="#16" y="36.907"/><use xlink:href="#24" y="39.078"/></svg><svg x="3384"><use xlink:href="#a"/><use xlink:href="#b" x="11.996" y="30.369"/><use xlink:href="#1" y="2.171"/><use xlink:href="#4" y="4.342"/><use xlink:href="#5" y="6.513"/><use xlink:href="#6" y="8.684"/><use xlink:href="#7" y="10.855"/><use xlink:href="#8" y="13.026"/><use xlink:href="#9" y="15.197"/><use xlink:href="#10" y="17.368"/><use xlink:href="#11" y="19.539"/><use xlink:href="#12" y="21.71"/><use xlink:href="#1" y="28.223"/><use xlink:href="#20" y="30.394"/><use xlink:href="#14" y="32.565"/><use xlink:href="#15" y="34.736"/><use xlink:href="#22" y="36.907"/><use xlink:href="#17" y="39.078"/></svg><svg x="3478"><use xlink:href="#a"/><use xlink:href="#b" x="-.004" y="32.54"/><use xlink:href="#1" y="2.171"/><use xlink:href="#4" y="4.342"/><use xlink:href="#5" y="6.513"/><use xlink:href="#6" y="8.684"/><use xlink:href="#7" y="10.855"/><use xlink:href="#8" y="13.026"/><use xlink:href="#9" y="15.197"/><use xlink:href="#10" y="17.368"/><use xlink:href="#11" y="19.539"/><use xlink:href="#12" y="21.71"/><use xlink:href="#1" y="28.223"/><use xlink:href="#19" y="30.394"/><use xlink:href="#14" y="32.565"/><use xlink:href="#15" y="34.736"/><use xlink:href="#22" y="36.907"/><use xlink:href="#17" y="39.078"/></svg><svg x="3572"><use xlink:href="#a"/><use xlink:href="#b" x="13.996" y="30.369"/><use xlink:href="#1" y="2.171"/><use xlink:href="#4" y="4.342"/><use xlink:href="#5" y="6.513"/><use xlink:href="#6" y="8.684"/><use xlink:href="#7" y="10.855"/><use xlink:href="#8" y="13.026"/><use xlink:href="#9" y="15.197"/><use xlink:href="#10" y="17.368"/><use xlink:href="#11" y="19.539"/><use xlink:href="#12" y="21.71"/><use xlink:href="#1" y="28.223"/><use xlink:href="#19" y="30.394"/><use xlink:href="#14" y="32.565"/><use xlink:href="#21" y="34.736"/><use xlink:href="#16" y="36.907"/><use xlink:href="#17" y="39.078"/></svg><svg x="3666"><use xlink:href="#a"/><use xlink:href="#b" x="-.004" y="32.54"/><use xlink:href="#1" y="2.171"/><use xlink:href="#4" y="4.342"/><use xlink:href="#5" y="6.513"/><use xlink:href="#6" y="8.684"/><use xlink:href="#7" y="10.855"/><use xlink:href="#8" y="13.026"/><use xlink:href="#9" y="15.197"/><use xlink:href="#10" y="17.368"/><use xlink:href="#11" y="19.539"/><use xlink:href="#12" y="21.71"/><use xlink:href="#1" y="28.223"/><use xlink:href="#20" y="30.394"/><use xlink:href="#14" y="32.565"/><use xlink:href="#21" y="34.736"/><use xlink:href="#16" y="36.907"/><use xlink:href="#17" y="39.078"/></svg><svg x="3760"><use xlink:href="#a"/><use xlink:href="#b" x="11.996" y="30.369"/><use xlink:href="#1" y="2.171"/><use xlink:href="#4" y="4.342"/><use xlink:href="#5" y="6.513"/><use xlink:href="#6" y="8.684"/><use xlink:href="#7" y="10.855"/><use xlink:href="#8" y="13.026"/><use xlink:href="#9" y="15.197"/><use xlink:href="#10" y="17.368"/><use xlink:href="#11" y="19.539"/><use xlink:href="#12" y="21.71"/><use xlink:href="#1" y="28.223"/><use xlink:href="#20" y="30.394"/><use xlink:href="#14" y="32.565"/><use xlink:href="#15" y="34.736"/><use xlink:href="#22" y="36.907"/><use xlink:href="#17" y="39.078"/></svg><svg x="3854"><use xlink:href="#a"/><use xlink:href="#b" x="-.004" y="32.54"/><use xlink:href="#1" y="2.171"/><use xlink:href="#4" y="4.342"/><use xlink:href="#5" y="6.513"/><use xlink:href="#6" y="8.684"/><use xlink:href="#7" y="10.855"/><use xlink:href="#8" y="13.026"/><use xlink:href="#9" y="15.197"/><use xlink:href="#10" y="17.368"/><use xlink:href="#11" y="19.539"/><use xlink:href="#12" y="21.71"/><use xlink:href="#1" y="28.223"/><use xlink:href="#23" y="30.394"/><use xlink:href="#14" y="32.565"/><use xlink:href="#15" y="34.736"/><use xlink:href="#22" y="36.907"/><use xlink:href="#17" y="39.078"/></svg><svg x="3948"><use xlink:href="#a"/><use xlink:href="#b" x="9.996" y="30.369"/><use xlink:href="#1" y="2.171"/><use xlink:href="#4" y="4.342"/><use xlink:href="#5" y="6.513"/><use xlink:href="#6" y="8.684"/><use xlink:href="#7" y="10.855"/><use xlink:href="#8" y="13.026"/><use xlink:href="#9" y="15.197"/><use xlink:href="#10" y="17.368"/><use xlink:href="#11" y="19.539"/><use xlink:href="#12" y="21.71"/><use xlink:href="#1" y="28.223"/><use xlink:href="#23" y="30.394"/><use xlink:href="#14" y="32.565"/><use xlink:href="#15" y="34.736"/><use xlink:href="#16" y="36.907"/><use xlink:href="#24" y="39.078"/></svg><svg x="4042"><use xlink:href="#a"/><use xlink:href="#b" x="10.996" y="30.369"/><use xlink:href="#1" y="2.171"/><use xlink:href="#4" y="4.342"/><use xlink:href="#5" y="6.513"/><use xlink:href="#6" y="8.684"/><use xlink:href="#7" y="10.855"/><use xlink:href="#8" y="13.026"/><use xlink:href="#9" y="15.197"/><use xlink:href="#10" y="17.368"/><use xlink:href="#11" y="19.539"/><use xlink:href="#12" y="21.71"/><use xlink:href="#1" y="28.223"/><use xlink:href="#23" y="30.394"/></svg><svg x="4136"><use xlink:href="#a"/><use xlink:href="#b" x="11.996" y="30.369"/><use xlink:href="#1" y="2.171"/><use xlink:href="#4" y="4.342"/><use xlink:href="#5" y="6.513"/><use xlink:href="#6" y="8.684"/><use xlink:href="#7" y="10.855"/><use xlink:href="#8" y="13.026"/><use xlink:href="#9" y="15.197"/><use xlink:href="#10" y="17.368"/><use xlink:href="#11" y="19.539"/><use xlink:href="#12" y="21.71"/><use xlink:href="#1" y="28.223"/><text y="32.064" class="i">▶</text><text x="2.004" y="32.064" class="k">edam</text><text x="7.014" y="32.064" class="k">vue</text><text x="11.022" y="32.064" class="k">-</text></svg><svg x="4230"><use xlink:href="#a"/><use xlink:href="#b" x="12.996" y="30.369"/><use xlink:href="#1" y="2.171"/><use xlink:href="#4" y="4.342"/><use xlink:href="#5" y="6.513"/><use xlink:href="#6" y="8.684"/><use xlink:href="#7" y="10.855"/><use xlink:href="#8" y="13.026"/><use xlink:href="#9" y="15.197"/><use xlink:href="#10" y="17.368"/><use xlink:href="#11" y="19.539"/><use xlink:href="#12" y="21.71"/><use xlink:href="#1" y="28.223"/><use xlink:href="#25" y="30.394"/></svg><svg x="4324"><use xlink:href="#a"/><use xlink:href="#b" x="13.996" y="30.369"/><use xlink:href="#1" y="2.171"/><use xlink:href="#4" y="4.342"/><use xlink:href="#5" y="6.513"/><use xlink:href="#6" y="8.684"/><use xlink:href="#7" y="10.855"/><use xlink:href="#8" y="13.026"/><use xlink:href="#9" y="15.197"/><use xlink:href="#10" y="17.368"/><use xlink:href="#11" y="19.539"/><use xlink:href="#12" y="21.71"/><use xlink:href="#1" y="28.223"/><use xlink:href="#25" y="30.394"/></svg><svg x="4418"><use xlink:href="#a"/><use xlink:href="#b" x="13.996" y="30.369"/><use xlink:href="#1" y="2.171"/><use xlink:href="#4" y="4.342"/><use xlink:href="#5" y="6.513"/><use xlink:href="#6" y="8.684"/><use xlink:href="#7" y="10.855"/><use xlink:href="#8" y="13.026"/><use xlink:href="#9" y="15.197"/><use xlink:href="#10" y="17.368"/><use xlink:href="#11" y="19.539"/><use xlink:href="#12" y="21.71"/><use xlink:href="#1" y="28.223"/><use xlink:href="#25" y="30.394"/></svg><svg x="4512"><use xlink:href="#a"/><use xlink:href="#b" x="-.004" y="32.54"/><use xlink:href="#1" y="2.171"/><use xlink:href="#4" y="4.342"/><use xlink:href="#5" y="6.513"/><use xlink:href="#6" y="8.684"/><use xlink:href="#7" y="10.855"/><use xlink:href="#8" y="13.026"/><use xlink:href="#9" y="15.197"/><use xlink:href="#10" y="17.368"/><use xlink:href="#11" y="19.539"/><use xlink:href="#12" y="21.71"/><use xlink:href="#1" y="28.223"/><use xlink:href="#25" y="30.394"/></svg><svg x="4606"><use xlink:href="#a"/><use xlink:href="#b" x="1.996" y="30.369"/><use xlink:href="#1" y="2.171"/><use xlink:href="#4" y="4.342"/><use xlink:href="#5" y="6.513"/><use xlink:href="#6" y="8.684"/><use xlink:href="#7" y="10.855"/><use xlink:href="#8" y="13.026"/><use xlink:href="#9" y="15.197"/><use xlink:href="#10" y="17.368"/><use xlink:href="#11" y="19.539"/><use xlink:href="#12" y="21.71"/><use xlink:href="#1" y="28.223"/><use xlink:href="#25" y="30.394"/><use xlink:href="#26" y="32.565"/><use xlink:href="#27" y="34.736"/><use xlink:href="#28" y="36.907"/></svg><svg x="4700"><use xlink:href="#a"/><use xlink:href="#b" x="13.996" y="30.369"/><use xlink:href="#1" y="2.171"/><use xlink:href="#4" y="4.342"/><use xlink:href="#5" y="6.513"/><use xlink:href="#6" y="8.684"/><use xlink:href="#7" y="10.855"/><use xlink:href="#8" y="13.026"/><use xlink:href="#9" y="15.197"/><use xlink:href="#10" y="17.368"/><use xlink:href="#11" y="19.539"/><use xlink:href="#12" y="21.71"/><use xlink:href="#1" y="28.223"/><use xlink:href="#25" y="30.394"/><use xlink:href="#26" y="32.565"/><use xlink:href="#27" y="34.736"/><use xlink:href="#28" y="36.907"/></svg><svg x="4794"><use xlink:href="#a"/><use xlink:href="#b" x="-.004" y="32.54"/><use xlink:href="#1" y="2.171"/><use xlink:href="#4" y="4.342"/><use xlink:href="#5" y="6.513"/><use xlink:href="#6" y="8.684"/><use xlink:href="#7" y="10.855"/><use xlink:href="#8" y="13.026"/><use xlink:href="#9" y="15.197"/><use xlink:href="#10" y="17.368"/><use xlink:href="#11" y="19.539"/><use xlink:href="#12" y="21.71"/><use xlink:href="#1" y="28.223"/><use xlink:href="#29" y="30.394"/><use xlink:href="#26" y="32.565"/><use xlink:href="#27" y="34.736"/><use xlink:href="#28" y="36.907"/></svg><svg x="4888"><use xlink:href="#a"/><use xlink:href="#b" x="-.004" y="32.54"/><use xlink:href="#1" y="2.171"/><use xlink:href="#4" y="4.342"/><use xlink:href="#5" y="6.513"/><use xlink:href="#6" y="8.684"/><use xlink:href="#7" y="10.855"/><use xlink:href="#8" y="13.026"/><use xlink:href="#9" y="15.197"/><use xlink:href="#10" y="17.368"/><use xlink:href="#11" y="19.539"/><use xlink:href="#12" y="21.71"/><use xlink:href="#1" y="28.223"/><use xlink:href="#29" y="30.394"/><use xlink:href="#30" y="32.565"/><use xlink:href="#27" y="34.736"/><use xlink:href="#28" y="36.907"/></svg><svg x="4982"><use xlink:href="#a"/><use xlink:href="#b" x="-.004" y="32.54"/><use xlink:href="#1" y="2.171"/><use xlink:href="#4" y="4.342"/><use xlink:href="#5" y="6.513"/><use xlink:href="#6" y="8.684"/><use xlink:href="#7" y="10.855"/><use xlink:href="#8" y="13.026"/><use xlink:href="#9" y="15.197"/><use xlink:href="#10" y="17.368"/><use xlink:href="#11" y="19.539"/><use xlink:href="#12" y="21.71"/><use xlink:href="#1" y="28.223"/><use xlink:href="#31" y="30.394"/><use xlink:href="#30" y="32.565"/><use xlink:href="#27" y="34.736"/><use xlink:href="#28" y="36.907"/></svg><svg x="5076"><use xlink:href="#a"/><use xlink:href="#b" x="30.996" y="30.369"/><use xlink:href="#1" y="2.171"/><use xlink:href="#4" y="4.342"/><use xlink:href="#5" y="6.513"/><use xlink:href="#6" y="8.684"/><use xlink:href="#7" y="10.855"/><use xlink:href="#8" y="13.026"/><use xlink:href="#9" y="15.197"/><use xlink:href="#10" y="17.368"/><use xlink:href="#11" y="19.539"/><use xlink:href="#12" y="21.71"/><use xlink:href="#1" y="28.223"/><use xlink:href="#31" y="30.394"/><use xlink:href="#26" y="32.565"/><use xlink:href="#32" y="34.736"/><use xlink:href="#28" y="36.907"/></svg><svg x="5170"><use xlink:href="#a"/><use xlink:href="#b" x="25.996" y="30.369"/><use xlink:href="#1" y="2.171"/><use xlink:href="#4" y="4.342"/><use xlink:href="#5" y="6.513"/><use xlink:href="#6" y="8.684"/><use xlink:href="#7" y="10.855"/><use xlink:href="#8" y="13.026"/><use xlink:href="#9" y="15.197"/><use xlink:href="#10" y="17.368"/><use xlink:href="#11" y="19.539"/><use xlink:href="#12" y="21.71"/><use xlink:href="#1" y="28.223"/><use xlink:href="#33" y="30.394"/><use xlink:href="#26" y="32.565"/><use xlink:href="#32" y="34.736"/><use xlink:href="#28" y="36.907"/></svg><svg x="5264"><use xlink:href="#a"/><use xlink:href="#b" x="-.004" y="32.54"/><use xlink:href="#1" y="2.171"/><use xlink:href="#4" y="4.342"/><use xlink:href="#5" y="6.513"/><use xlink:href="#6" y="8.684"/><use xlink:href="#7" y="10.855"/><use xlink:href="#8" y="13.026"/><use xlink:href="#9" y="15.197"/><use xlink:href="#10" y="17.368"/><use xlink:href="#11" y="19.539"/><use xlink:href="#12" y="21.71"/><use xlink:href="#1" y="28.223"/><use xlink:href="#33" y="30.394"/><use xlink:href="#26" y="32.565"/><use xlink:href="#32" y="34.736"/><use xlink:href="#28" y="36.907"/></svg><svg x="5358"><use xlink:href="#a"/><use xlink:href="#b" x="25.996" y="30.369"/><use xlink:href="#1" y="2.171"/><use xlink:href="#4" y="4.342"/><use xlink:href="#5" y="6.513"/><use xlink:href="#6" y="8.684"/><use xlink:href="#7" y="10.855"/><use xlink:href="#8" y="13.026"/><use xlink:href="#9" y="15.197"/><use xlink:href="#10" y="17.368"/><use xlink:href="#11" y="19.539"/><use xlink:href="#12" y="21.71"/><use xlink:href="#1" y="28.223"/><use xlink:href="#33" y="30.394"/><use xlink:href="#26" y="32.565"/><use xlink:href="#27" y="34.736"/><use xlink:href="#34" y="36.907"/></svg><svg x="5452"><use xlink:href="#a"/><use xlink:href="#b" x="-.004" y="32.54"/><use xlink:href="#1" y="2.171"/><use xlink:href="#4" y="4.342"/><use xlink:href="#5" y="6.513"/><use xlink:href="#6" y="8.684"/><use xlink:href="#7" y="10.855"/><use xlink:href="#8" y="13.026"/><use xlink:href="#9" y="15.197"/><use xlink:href="#10" y="17.368"/><use xlink:href="#11" y="19.539"/><use xlink:href="#12" y="21.71"/><use xlink:href="#1" y="28.223"/><use xlink:href="#31" y="30.394"/><use xlink:href="#26" y="32.565"/><use xlink:href="#27" y="34.736"/><use xlink:href="#34" y="36.907"/></svg><svg x="5546"><use xlink:href="#a"/><use xlink:href="#b" x="30.996" y="30.369"/><use xlink:href="#1" y="2.171"/><use xlink:href="#4" y="4.342"/><use xlink:href="#5" y="6.513"/><use xlink:href="#6" y="8.684"/><use xlink:href="#7" y="10.855"/><use xlink:href="#8" y="13.026"/><use xlink:href="#9" y="15.197"/><use xlink:href="#10" y="17.368"/><use xlink:href="#11" y="19.539"/><use xlink:href="#12" y="21.71"/><use xlink:href="#1" y="28.223"/><use xlink:href="#31" y="30.394"/><use xlink:href="#26" y="32.565"/><use xlink:href="#32" y="34.736"/><use xlink:href="#28" y="36.907"/></svg><svg x="5640"><use xlink:href="#a"/><use xlink:href="#b" x="-.004" y="32.54"/><use xlink:href="#1" y="2.171"/><use xlink:href="#4" y="4.342"/><use xlink:href="#5" y="6.513"/><use xlink:href="#6" y="8.684"/><use xlink:href="#7" y="10.855"/><use xlink:href="#8" y="13.026"/><use xlink:href="#9" y="15.197"/><use xlink:href="#10" y="17.368"/><use xlink:href="#11" y="19.539"/><use xlink:href="#12" y="21.71"/><use xlink:href="#1" y="28.223"/><use xlink:href="#29" y="30.394"/><use xlink:href="#26" y="32.565"/><use xlink:href="#32" y="34.736"/><use xlink:href="#28" y="36.907"/></svg><svg x="5734"><use xlink:href="#a"/><use xlink:href="#b" x="25.996" y="30.369"/><use xlink:href="#1" y="2.171"/><use xlink:href="#4" y="4.342"/><use xlink:href="#5" y="6.513"/><use xlink:href="#6" y="8.684"/><use xlink:href="#7" y="10.855"/><use xlink:href="#8" y="13.026"/><use xlink:href="#9" y="15.197"/><use xlink:href="#10" y="17.368"/><use xlink:href="#11" y="19.539"/><use xlink:href="#12" y="21.71"/><use xlink:href="#1" y="28.223"/><use xlink:href="#29" y="30.394"/><use xlink:href="#30" y="32.565"/><use xlink:href="#27" y="34.736"/><use xlink:href="#28" y="36.907"/></svg><svg x="5828"><use xlink:href="#a"/><use xlink:href="#b" x="-.004" y="32.54"/><use xlink:href="#1" y="2.171"/><use xlink:href="#4" y="4.342"/><use xlink:href="#5" y="6.513"/><use xlink:href="#6" y="8.684"/><use xlink:href="#7" y="10.855"/><use xlink:href="#8" y="13.026"/><use xlink:href="#9" y="15.197"/><use xlink:href="#10" y="17.368"/><use xlink:href="#11" y="19.539"/><use xlink:href="#12" y="21.71"/><use xlink:href="#1" y="28.223"/><use xlink:href="#31" y="30.394"/><use xlink:href="#30" y="32.565"/><use xlink:href="#27" y="34.736"/><use xlink:href="#28" y="36.907"/></svg><svg x="5922"><use xlink:href="#a"/><use xlink:href="#b" x="30.996" y="30.369"/><use xlink:href="#1" y="2.171"/><use xlink:href="#4" y="4.342"/><use xlink:href="#5" y="6.513"/><use xlink:href="#6" y="8.684"/><use xlink:href="#7" y="10.855"/><use xlink:href="#8" y="13.026"/><use xlink:href="#9" y="15.197"/><use xlink:href="#10" y="17.368"/><use xlink:href="#11" y="19.539"/><use xlink:href="#12" y="21.71"/><use xlink:href="#1" y="28.223"/><use xlink:href="#31" y="30.394"/><use xlink:href="#26" y="32.565"/><use xlink:href="#32" y="34.736"/><use xlink:href="#28" y="36.907"/></svg><svg x="6016"><use xlink:href="#a"/><use xlink:href="#b" x="-.004" y="32.54"/><use xlink:href="#1" y="2.171"/><use xlink:href="#4" y="4.342"/><use xlink:href="#5" y="6.513"/><use xlink:href="#6" y="8.684"/><use xlink:href="#7" y="10.855"/><use xlink:href="#8" y="13.026"/><use xlink:href="#9" y="15.197"/><use xlink:href="#10" y="17.368"/><use xlink:href="#11" y="19.539"/><use xlink:href="#12" y="21.71"/><use xlink:href="#1" y="28.223"/><use xlink:href="#33" y="30.394"/><use xlink:href="#26" y="32.565"/><use xlink:href="#32" y="34.736"/><use xlink:href="#28" y="36.907"/></svg><svg x="6110"><use xlink:href="#a"/><use xlink:href="#b" x="25.996" y="30.369"/><use xlink:href="#1" y="2.171"/><use xlink:href="#4" y="4.342"/><use xlink:href="#5" y="6.513"/><use xlink:href="#6" y="8.684"/><use xlink:href="#7" y="10.855"/><use xlink:href="#8" y="13.026"/><use xlink:href="#9" y="15.197"/><use xlink:href="#10" y="17.368"/><use xlink:href="#11" y="19.539"/><use xlink:href="#12" y="21.71"/><use xlink:href="#1" y="28.223"/><use xlink:href="#33" y="30.394"/><use xlink:href="#26" y="32.565"/><use xlink:href="#27" y="34.736"/><use xlink:href="#34" y="36.907"/></svg><svg x="6204"><use xlink:href="#a"/><use xlink:href="#b" x="26.996" y="30.369"/><use xlink:href="#1" y="2.171"/><use xlink:href="#4" y="4.342"/><use xlink:href="#5" y="6.513"/><use xlink:href="#6" y="8.684"/><use xlink:href="#7" y="10.855"/><use xlink:href="#8" y="13.026"/><use xlink:href="#9" y="15.197"/><use xlink:href="#10" y="17.368"/><use xlink:href="#11" y="19.539"/><use xlink:href="#12" y="21.71"/><use xlink:href="#1" y="28.223"/><use xlink:href="#33" y="30.394"/></svg><svg x="6298"><use xlink:href="#a"/><use xlink:href="#b" x="1.996" y="30.369"/><use xlink:href="#1" y="2.171"/><use xlink:href="#4" y="4.342"/><use xlink:href="#5" y="6.513"/><use xlink:href="#6" y="8.684"/><use xlink:href="#7" y="10.855"/><use xlink:href="#8" y="13.026"/><use xlink:href="#9" y="15.197"/><use xlink:href="#10" y="17.368"/><use xlink:href="#11" y="19.539"/><use xlink:href="#12" y="21.71"/><use xlink:href="#1" y="28.223"/><use xlink:href="#2" y="30.394"/></svg><svg x="6392"><use xlink:href="#a"/><use xlink:href="#b" x="-.004" y="32.54"/><use xlink:href="#1" y="2.171"/><use xlink:href="#4" y="4.342"/><use xlink:href="#5" y="6.513"/><use xlink:href="#6" y="8.684"/><use xlink:href="#7" y="10.855"/><use xlink:href="#8" y="13.026"/><use xlink:href="#9" y="15.197"/><use xlink:href="#10" y="17.368"/><use xlink:href="#11" y="19.539"/><use xlink:href="#12" y="21.71"/><use xlink:href="#1" y="28.223"/><use xlink:href="#2" y="30.394"/></svg></svg></g></g></svg></svg>