<svg xmlns="http://www.w3.org/2000/svg" xmlns:xlink="http://www.w3.org/1999/xlink" width="2080" height="515.91"><rect width="2080" height="515.91" rx="5" ry="5" class="a"/><svg y="0%" x="0%"><circle cx="20" cy="20" r="6" fill="#ff5f58"/><circle cx="40" cy="20" r="6" fill="#ffbd2e"/><circle cx="60" cy="20" r="6" fill="#18c132"/></svg><svg height="455.91" viewBox="0 0 204 45.591" width="2040" x="15" xmlns="http://www.w3.org/2000/svg" xmlns:xlink="http://www.w3.org/1999/xlink" y="50"><style>@keyframes l{0%{transform:translateX(0)}5.47%{transform:translateX(-408px)}6.25%{transform:translateX(-612px)}6.26%{transform:translateX(-816px)}14.4%{transform:translateX(-1020px)}15.03%{transform:translateX(-1224px)}15.9%{transform:translateX(-1428px)}16.32%{transform:translateX(-1632px)}18.1%{transform:translateX(-1836px)}19.23%{transform:translateX(-2040px)}23.05%{transform:translateX(-2244px)}24.09%{transform:translateX(-2448px)}24.73%{transform:translateX(-2652px)}25.8%{transform:translateX(-2856px)}26.2%{transform:translateX(-3060px)}26.93%{transform:translateX(-3264px)}28.04%{transform:translateX(-3468px)}28.6%{transform:translateX(-3672px)}28.61%{transform:translateX(-4080px)}28.63%{transform:translateX(-4692px)}29.34%{transform:translateX(-5100px)}38.6%{transform:translateX(-5304px)}39.04%{transform:translateX(-5508px)}39.83%{transform:translateX(-5712px)}40.47%{transform:translateX(-5916px)}41.09%{transform:translateX(-6120px)}50.51%{transform:translateX(-6528px)}53.94%{transform:translateX(-6936px)}54.33%{transform:translateX(-7548px)}55.02%{transform:translateX(-7956px)}58.61%{transform:translateX(-8364px)}61.31%{transform:translateX(-8568px)}64.12%{transform:translateX(-8772px)}65%{transform:translateX(-8976px)}65.5%{transform:translateX(-9180px)}69.78%{transform:translateX(-9588px)}73.27%{transform:translateX(-9996px)}73.28%{transform:translateX(-10812px)}74.44%{transform:translateX(-11220px)}76.7%{transform:translateX(-11628px)}77.37%{transform:translateX(-12036px)}78.01%{transform:translateX(-12444px)}79.4%{transform:translateX(-12852px)}80.18%{transform:translateX(-13056px)}80.19%{transform:translateX(-13260px)}83.63%{transform:translateX(-13464px)}93.59%{transform:translateX(-13668px)}to{transform:translateX(-13872px)}}.a{fill:#282d35}.g{fill:#a8cc8c}.h{fill:#b9bfca}.i{fill:#b9c0cb}</style><g font-size="1.67" font-family="Monaco,Consolas,Menlo,'Bitstream Vera Sans Mono','Powerline Symbols',monospace"><defs><symbol id="1"><text y="1.67" fill="#71bef2" font-weight="700">edam/packages/edam-completer</text><text x="30.06" y="1.67" class="g">master</text><text x="37.074" y="1.67" class="g">✔</text><text x="198.396" y="1.67" class="h">22m</text></symbol><symbol id="2"><text y="1.67" class="h">▶</text></symbol><symbol id="3"><text y="1.67" class="h">▶</text><text x="2.004" y="1.67" class="i">cat</text></symbol><symbol id="4"><text y="1.67" class="h">▶</text><text x="2.004" y="1.67" class="i">cat</text><text x="6.012" y="1.67" class="i">~/.edamrc</text></symbol><symbol id="5"><text y="1.67" class="i">{</text></symbol><symbol id="6"><text x="2.004" y="1.67" class="i">&quot;source&quot;:</text><text x="12.024" y="1.67" class="i">&quot;npm&quot;,</text></symbol><symbol id="7"><text x="2.004" y="1.67" class="i">alias:</text><text x="9.018" y="1.67" class="i">{</text></symbol><symbol id="8"><text x="4.008" y="1.67" class="i">&quot;react&quot;:</text><text x="13.026" y="1.67" class="i">&quot;facebook/react&quot;,</text></symbol><symbol id="9"><text x="4.008" y="1.67" class="i">&quot;vue&quot;:</text><text x="11.022" y="1.67" class="i">&quot;vue&quot;,</text></symbol><symbol id="10"><text x="4.008" y="1.67" class="i">&quot;file&quot;:</text><text x="12.024" y="1.67" class="i">&quot;./package.json&quot;</text></symbol><symbol id="11"><text x="2.004" y="1.67" class="i">}</text></symbol><symbol id="12"><text y="1.67" class="i">}</text></symbol><symbol id="13"><text y="1.67" class="h">▶</text><text x="2.004" y="1.67" class="i">edam</text></symbol><symbol id="14"><text y="1.67" class="i">file</text><text x="9.018" y="1.67" class="i">--</text><text x="12.024" y="1.67" class="i">file</text><text x="17.034" y="1.67" class="i">-&gt;</text><text x="20.04" y="1.67" class="i">~/self/edam/packages/edam-completer/package.json</text></symbol><symbol id="15"><text y="1.67" class="i">picidae</text><text x="9.018" y="1.67" class="i">--</text><text x="12.024" y="1.67" class="i">git</text><text x="16.032" y="1.67" class="i">-&gt;</text><text x="19.038" y="1.67" class="i">//github.com/picidaejs/picidaejs.git</text></symbol><symbol id="16"><text y="1.67" class="i">react</text><text x="9.018" y="1.67" class="i">--</text><text x="12.024" y="1.67" class="i">git</text><text x="16.032" y="1.67" class="i">-&gt;</text><text x="19.038" y="1.67" class="i">//github.com/facebook/react.git</text></symbol><symbol id="17"><text y="1.67" class="i">vue</text><text x="9.018" y="1.67" class="i">--</text><text x="12.024" y="1.67" class="i">npm</text><text x="16.032" y="1.67" class="i">-&gt;</text><text x="19.038" y="1.67" class="i">vue</text></symbol><symbol id="18"><text y="1.67" class="h">▶</text><text x="2.004" y="1.67" class="i">edam</text><text x="7.014" y="1.67" class="i">file</text></symbol><symbol id="19"><path class="i" d="M0 0h68v2.171H0z"/><text y="1.67" class="a">file -- file -&gt; ~/self/edam/packages/edam-completer/package.json</text></symbol><symbol id="20"><text y="1.67" class="h">▶</text><text x="2.004" y="1.67" class="i">edam</text><text x="7.014" y="1.67" class="i">picidae</text></symbol><symbol id="21"><path class="i" d="M0 0h204v2.171H0z"/><text y="1.67" class="a">picidae -- git -&gt; //github.com/picidaejs/picidaejs.git</text></symbol><symbol id="22"><text y="1.67" class="h">▶</text><text x="2.004" y="1.67" class="i">edam</text><text x="7.014" y="1.67" class="i">react</text></symbol><symbol id="23"><path class="i" d="M0 0h204v2.171H0z"/><text y="1.67" class="a">react -- git -&gt; //github.com/facebook/react.git</text></symbol><symbol id="24"><text y="1.67" class="h">▶</text><text x="2.004" y="1.67" class="i">edam</text><text x="7.014" y="1.67" class="i">picidae</text><text x="15.03" y="1.67" class="i">-o</text></symbol><symbol id="25"><text y="1.67" class="i">package-lock.json</text><text x="19.038" y="1.67" class="i">node_modules/</text><text x="34.068" y="1.67" class="i">package.json</text><text x="48.096" y="1.67" class="i">completer.js</text><text x="62.124" y="1.67" class="i">Readme.md</text><text x="73.146" y="1.67" class="i">--</text></symbol><symbol id="26"><text y="1.67" class="h">▶</text><text x="2.004" y="1.67" class="i">edam</text><text x="7.014" y="1.67" class="i">picidae</text><text x="15.03" y="1.67" class="i">-o</text><text x="18.036" y="1.67" class="i">package-lock.json</text></symbol><symbol id="27"><path class="i" d="M0 0h17v2.171H0z"/><text y="1.67" class="a">package-lock.json</text><text x="19.038" y="1.67" class="i">node_modules/</text><text x="34.068" y="1.67" class="i">package.json</text><text x="48.096" y="1.67" class="i">completer.js</text><text x="62.124" y="1.67" class="i">Readme.md</text><text x="73.146" y="1.67" class="i">--</text></symbol><symbol id="28"><text y="1.67" class="h">▶</text><text x="2.004" y="1.67" class="i">edam</text><text x="7.014" y="1.67" class="i">picidae</text><text x="15.03" y="1.67" class="i">-o</text><text x="18.036" y="1.67" class="i">node_modules/</text></symbol><symbol id="29"><text y="1.67" class="h">▶</text><text x="2.004" y="1.67" class="i">edam</text><text x="7.014" y="1.67" class="i">picidae</text><text x="15.03" y="1.67" class="i">-o</text><text x="18.036" y="1.67" class="i">package.json</text></symbol><symbol id="30"><text y="1.67" class="i">package-lock.json</text><path class="i" d="M19.038 0h13v2.171h-13z"/><text x="19.038" y="1.67" class="a">node_modules/</text><text x="34.068" y="1.67" class="i">package.json</text><text x="48.096" y="1.67" class="i">completer.js</text><text x="62.124" y="1.67" class="i">Readme.md</text><text x="73.146" y="1.67" class="i">--</text></symbol><symbol id="31"><text y="1.67" class="i">package-lock.json</text><text x="19.038" y="1.67" class="i">node_modules/</text><path class="i" d="M34.068 0h12v2.171h-12z"/><text x="34.068" y="1.67" class="a">package.json</text><text x="48.096" y="1.67" class="i">completer.js</text><text x="62.124" y="1.67" class="i">Readme.md</text><text x="73.146" y="1.67" class="i">--</text></symbol><symbol id="32"><text y="1.67" class="h">▶</text><text x="2.004" y="1.67" class="i">edam</text><text x="7.014" y="1.67" class="i">picidae</text><text x="15.03" y="1.67" class="i">-o</text><text x="18.036" y="1.67" class="i">completer.js</text></symbol><symbol id="33"><text y="1.67" class="i">package-lock.json</text><text x="19.038" y="1.67" class="i">node_modules/</text><text x="34.068" y="1.67" class="i">package.json</text><path class="i" d="M48.096 0h12v2.171h-12z"/><text x="48.096" y="1.67" class="a">completer.js</text><text x="62.124" y="1.67" class="i">Readme.md</text><text x="73.146" y="1.67" class="i">--</text></symbol><symbol id="a"><path fill="transparent" d="M0 0h204v21H0z"/></symbol><symbol id="b"><path fill="#6f7683" d="M0 0h1.102v2.171H0z"/></symbol></defs><path class="a" d="M0 0h204v45.591H0z"/><g style="animation-duration:24.397699s;animation-iteration-count:infinite;animation-name:l;animation-timing-function:steps(1,end)"><svg width="14076"><svg><use xlink:href="#a"/><use xlink:href="#b" x="-.004"/></svg><svg x="204"><use xlink:href="#a"/><use xlink:href="#b" x="-.004"/></svg><svg x="408"><use xlink:href="#a"/><use xlink:href="#b" x="-.004"/></svg><svg x="612"><use xlink:href="#a"/><use xlink:href="#b" x="1.996" y="4.317"/><use xlink:href="#1" y="2.171"/><use xlink:href="#2" y="4.342"/></svg><svg x="816"><use xlink:href="#a"/><use xlink:href="#b" x="1.996" y="4.317"/><use xlink:href="#1" y="2.171"/><use xlink:href="#2" y="4.342"/></svg><svg x="1020"><use xlink:href="#a"/><use xlink:href="#b" x="2.996" y="4.317"/><use xlink:href="#1" y="2.171"/><text y="6.012" class="h">▶</text><text x="2.004" y="6.012" class="i">c</text></svg><svg x="1224"><use xlink:href="#a"/><use xlink:href="#b" x="3.996" y="4.317"/><use xlink:href="#1" y="2.171"/><text y="6.012" class="h">▶</text><text x="2.004" y="6.012" class="i">ca</text></svg><svg x="1428"><use xlink:href="#a"/><use xlink:href="#b" x="4.996" y="4.317"/><use xlink:href="#1" y="2.171"/><use xlink:href="#3" y="4.342"/></svg><svg x="1632"><use xlink:href="#a"/><use xlink:href="#b" x="5.996" y="4.317"/><use xlink:href="#1" y="2.171"/><use xlink:href="#3" y="4.342"/></svg><svg x="1836"><use xlink:href="#a"/><use xlink:href="#b" x="6.996" y="4.317"/><use xlink:href="#1" y="2.171"/><text y="6.012" class="h">▶</text><text x="2.004" y="6.012" class="i">cat</text><text x="6.012" y="6.012" class="i">~</text></svg><svg x="2040"><use xlink:href="#a"/><use xlink:href="#b" x="7.996" y="4.317"/><use xlink:href="#1" y="2.171"/><text y="6.012" class="h">▶</text><text x="2.004" y="6.012" class="i">cat</text><text x="6.012" y="6.012" class="i">~/</text></svg><svg x="2244"><use xlink:href="#a"/><use xlink:href="#b" x="8.996" y="4.317"/><use xlink:href="#1" y="2.171"/><text y="6.012" class="h">▶</text><text x="2.004" y="6.012" class="i">cat</text><text x="6.012" y="6.012" class="i">~/.</text></svg><svg x="2448"><use xlink:href="#a"/><use xlink:href="#b" x="9.996" y="4.317"/><use xlink:href="#1" y="2.171"/><text y="6.012" class="h">▶</text><text x="2.004" y="6.012" class="i">cat</text><text x="6.012" y="6.012" class="i">~/.e</text></svg><svg x="2652"><use xlink:href="#a"/><use xlink:href="#b" x="10.996" y="4.317"/><use xlink:href="#1" y="2.171"/><text y="6.012" class="h">▶</text><text x="2.004" y="6.012" class="i">cat</text><text x="6.012" y="6.012" class="i">~/.ed</text></svg><svg x="2856"><use xlink:href="#a"/><use xlink:href="#b" x="11.996" y="4.317"/><use xlink:href="#1" y="2.171"/><text y="6.012" class="h">▶</text><text x="2.004" y="6.012" class="i">cat</text><text x="6.012" y="6.012" class="i">~/.eda</text></svg><svg x="3060"><use xlink:href="#a"/><use xlink:href="#b" x="12.996" y="4.317"/><use xlink:href="#1" y="2.171"/><text y="6.012" class="h">▶</text><text x="2.004" y="6.012" class="i">cat</text><text x="6.012" y="6.012" class="i">~/.edam</text></svg><svg x="3264"><use xlink:href="#a"/><use xlink:href="#b" x="13.996" y="4.317"/><use xlink:href="#1" y="2.171"/><text y="6.012" class="h">▶</text><text x="2.004" y="6.012" class="i">cat</text><text x="6.012" y="6.012" class="i">~/.edamr</text></svg><svg x="3468"><use xlink:href="#a"/><use xlink:href="#b" x="14.996" y="4.317"/><use xlink:href="#1" y="2.171"/><use xlink:href="#4" y="4.342"/></svg><svg x="3672"><use xlink:href="#a"/><use xlink:href="#b" x="14.996" y="4.317"/><use xlink:href="#1" y="2.171"/><use xlink:href="#4" y="4.342"/></svg><svg x="3876"><use xlink:href="#a"/><use xlink:href="#b" x="-.004" y="6.488"/><use xlink:href="#1" y="2.171"/><use xlink:href="#4" y="4.342"/></svg><svg x="4080"><use xlink:href="#a"/><use xlink:href="#b" x="-.004" y="6.488"/><use xlink:href="#1" y="2.171"/><use xlink:href="#4" y="4.342"/></svg><svg x="4284"><use xlink:href="#a"/><use xlink:href="#b" x="-.004" y="26.027"/><use xlink:href="#1" y="2.171"/><use xlink:href="#4" y="4.342"/><use xlink:href="#5" y="6.513"/><use xlink:href="#6" y="8.684"/><use xlink:href="#7" y="10.855"/><use xlink:href="#8" y="13.026"/><use xlink:href="#9" y="15.197"/><use xlink:href="#10" y="17.368"/><use xlink:href="#11" y="19.539"/><use xlink:href="#12" y="21.71"/></svg><svg x="4488"><use xlink:href="#a"/><use xlink:href="#b" x="-.004" y="26.027"/><use xlink:href="#1" y="2.171"/><use xlink:href="#4" y="4.342"/><use xlink:href="#5" y="6.513"/><use xlink:href="#6" y="8.684"/><use xlink:href="#7" y="10.855"/><use xlink:href="#8" y="13.026"/><use xlink:href="#9" y="15.197"/><use xlink:href="#10" y="17.368"/><use xlink:href="#11" y="19.539"/><use xlink:href="#12" y="21.71"/></svg><svg x="4692"><use xlink:href="#a"/><use xlink:href="#b" x="-.004" y="26.027"/><use xlink:href="#1" y="2.171"/><use xlink:href="#4" y="4.342"/><use xlink:href="#5" y="6.513"/><use xlink:href="#6" y="8.684"/><use xlink:href="#7" y="10.855"/><use xlink:href="#8" y="13.026"/><use xlink:href="#9" y="15.197"/><use xlink:href="#10" y="17.368"/><use xlink:href="#11" y="19.539"/><use xlink:href="#12" y="21.71"/></svg><svg x="4896"><use xlink:href="#a"/><use xlink:href="#b" x="1.996" y="30.369"/><use xlink:href="#1" y="2.171"/><use xlink:href="#4" y="4.342"/><use xlink:href="#5" y="6.513"/><use xlink:href="#6" y="8.684"/><use xlink:href="#7" y="10.855"/><use xlink:href="#8" y="13.026"/><use xlink:href="#9" y="15.197"/><use xlink:href="#10" y="17.368"/><use xlink:href="#11" y="19.539"/><use xlink:href="#12" y="21.71"/><use xlink:href="#1" y="28.223"/><use xlink:href="#2" y="30.394"/></svg><svg x="5100"><use xlink:href="#a"/><use xlink:href="#b" x="1.996" y="30.369"/><use xlink:href="#1" y="2.171"/><use xlink:href="#4" y="4.342"/><use xlink:href="#5" y="6.513"/><use xlink:href="#6" y="8.684"/><use xlink:href="#7" y="10.855"/><use xlink:href="#8" y="13.026"/><use xlink:href="#9" y="15.197"/><use xlink:href="#10" y="17.368"/><use xlink:href="#11" y="19.539"/><use xlink:href="#12" y="21.71"/><use xlink:href="#1" y="28.223"/><use xlink:href="#2" y="30.394"/></svg><svg x="5304"><use xlink:href="#a"/><use xlink:href="#b" x="2.996" y="30.369"/><use xlink:href="#1" y="2.171"/><use xlink:href="#4" y="4.342"/><use xlink:href="#5" y="6.513"/><use xlink:href="#6" y="8.684"/><use xlink:href="#7" y="10.855"/><use xlink:href="#8" y="13.026"/><use xlink:href="#9" y="15.197"/><use xlink:href="#10" y="17.368"/><use xlink:href="#11" y="19.539"/><use xlink:href="#12" y="21.71"/><use xlink:href="#1" y="28.223"/><text y="32.064" class="h">▶</text><text x="2.004" y="32.064" class="i">e</text></svg><svg x="5508"><use xlink:href="#a"/><use xlink:href="#b" x="3.996" y="30.369"/><use xlink:href="#1" y="2.171"/><use xlink:href="#4" y="4.342"/><use xlink:href="#5" y="6.513"/><use xlink:href="#6" y="8.684"/><use xlink:href="#7" y="10.855"/><use xlink:href="#8" y="13.026"/><use xlink:href="#9" y="15.197"/><use xlink:href="#10" y="17.368"/><use xlink:href="#11" y="19.539"/><use xlink:href="#12" y="21.71"/><use xlink:href="#1" y="28.223"/><text y="32.064" class="h">▶</text><text x="2.004" y="32.064" class="i">ed</text></svg><svg x="5712"><use xlink:href="#a"/><use xlink:href="#b" x="4.996" y="30.369"/><use xlink:href="#1" y="2.171"/><use xlink:href="#4" y="4.342"/><use xlink:href="#5" y="6.513"/><use xlink:href="#6" y="8.684"/><use xlink:href="#7" y="10.855"/><use xlink:href="#8" y="13.026"/><use xlink:href="#9" y="15.197"/><use xlink:href="#10" y="17.368"/><use xlink:href="#11" y="19.539"/><use xlink:href="#12" y="21.71"/><use xlink:href="#1" y="28.223"/><text y="32.064" class="h">▶</text><text x="2.004" y="32.064" class="i">eda</text></svg><svg x="5916"><use xlink:href="#a"/><use xlink:href="#b" x="5.996" y="30.369"/><use xlink:href="#1" y="2.171"/><use xlink:href="#4" y="4.342"/><use xlink:href="#5" y="6.513"/><use xlink:href="#6" y="8.684"/><use xlink:href="#7" y="10.855"/><use xlink:href="#8" y="13.026"/><use xlink:href="#9" y="15.197"/><use xlink:href="#10" y="17.368"/><use xlink:href="#11" y="19.539"/><use xlink:href="#12" y="21.71"/><use xlink:href="#1" y="28.223"/><use xlink:href="#13" y="30.394"/></svg><svg x="6120"><use xlink:href="#a"/><use xlink:href="#b" x="6.996" y="30.369"/><use xlink:href="#1" y="2.171"/><use xlink:href="#4" y="4.342"/><use xlink:href="#5" y="6.513"/><use xlink:href="#6" y="8.684"/><use xlink:href="#7" y="10.855"/><use xlink:href="#8" y="13.026"/><use xlink:href="#9" y="15.197"/><use xlink:href="#10" y="17.368"/><use xlink:href="#11" y="19.539"/><use xlink:href="#12" y="21.71"/><use xlink:href="#1" y="28.223"/><use xlink:href="#13" y="30.394"/></svg><svg x="6324"><use xlink:href="#a"/><use xlink:href="#b" x="-.004" y="32.54"/><use xlink:href="#1" y="2.171"/><use xlink:href="#4" y="4.342"/><use xlink:href="#5" y="6.513"/><use xlink:href="#6" y="8.684"/><use xlink:href="#7" y="10.855"/><use xlink:href="#8" y="13.026"/><use xlink:href="#9" y="15.197"/><use xlink:href="#10" y="17.368"/><use xlink:href="#11" y="19.539"/><use xlink:href="#12" y="21.71"/><use xlink:href="#1" y="28.223"/><use xlink:href="#13" y="30.394"/></svg><svg x="6528"><use xlink:href="#a"/><use xlink:href="#b" x="6.996" y="30.369"/><use xlink:href="#1" y="2.171"/><use xlink:href="#4" y="4.342"/><use xlink:href="#5" y="6.513"/><use xlink:href="#6" y="8.684"/><use xlink:href="#7" y="10.855"/><use xlink:href="#8" y="13.026"/><use xlink:href="#9" y="15.197"/><use xlink:href="#10" y="17.368"/><use xlink:href="#11" y="19.539"/><use xlink:href="#12" y="21.71"/><use xlink:href="#1" y="28.223"/><use xlink:href="#13" y="30.394"/><use xlink:href="#14" y="32.565"/><use xlink:href="#15" y="34.736"/><use xlink:href="#16" y="36.907"/><use xlink:href="#17" y="39.078"/></svg><svg x="6732"><use xlink:href="#a"/><use xlink:href="#b" x="-.004" y="32.54"/><use xlink:href="#1" y="2.171"/><use xlink:href="#4" y="4.342"/><use xlink:href="#5" y="6.513"/><use xlink:href="#6" y="8.684"/><use xlink:href="#7" y="10.855"/><use xlink:href="#8" y="13.026"/><use xlink:href="#9" y="15.197"/><use xlink:href="#10" y="17.368"/><use xlink:href="#11" y="19.539"/><use xlink:href="#12" y="21.71"/><use xlink:href="#1" y="28.223"/><use xlink:href="#18" y="30.394"/><use xlink:href="#14" y="32.565"/><use xlink:href="#15" y="34.736"/><use xlink:href="#16" y="36.907"/><use xlink:href="#17" y="39.078"/></svg><svg x="6936"><use xlink:href="#a"/><use xlink:href="#b" x="10.996" y="30.369"/><use xlink:href="#1" y="2.171"/><use xlink:href="#4" y="4.342"/><use xlink:href="#5" y="6.513"/><use xlink:href="#6" y="8.684"/><use xlink:href="#7" y="10.855"/><use xlink:href="#8" y="13.026"/><use xlink:href="#9" y="15.197"/><use xlink:href="#10" y="17.368"/><use xlink:href="#11" y="19.539"/><use xlink:href="#12" y="21.71"/><use xlink:href="#1" y="28.223"/><use xlink:href="#18" y="30.394"/><use xlink:href="#19" y="32.565"/><use xlink:href="#15" y="34.736"/><use xlink:href="#16" y="36.907"/><use xlink:href="#17" y="39.078"/></svg><svg x="7140"><use xlink:href="#a"/><use xlink:href="#b" x="-.004" y="32.54"/><use xlink:href="#1" y="2.171"/><use xlink:href="#4" y="4.342"/><use xlink:href="#5" y="6.513"/><use xlink:href="#6" y="8.684"/><use xlink:href="#7" y="10.855"/><use xlink:href="#8" y="13.026"/><use xlink:href="#9" y="15.197"/><use xlink:href="#10" y="17.368"/><use xlink:href="#11" y="19.539"/><use xlink:href="#12" y="21.71"/><use xlink:href="#1" y="28.223"/><use xlink:href="#18" y="30.394"/><use xlink:href="#19" y="32.565"/><use xlink:href="#15" y="34.736"/><use xlink:href="#16" y="36.907"/><use xlink:href="#17" y="39.078"/></svg><svg x="7344"><use xlink:href="#a"/><use xlink:href="#b" x="-.004" y="32.54"/><use xlink:href="#1" y="2.171"/><use xlink:href="#4" y="4.342"/><use xlink:href="#5" y="6.513"/><use xlink:href="#6" y="8.684"/><use xlink:href="#7" y="10.855"/><use xlink:href="#8" y="13.026"/><use xlink:href="#9" y="15.197"/><use xlink:href="#10" y="17.368"/><use xlink:href="#11" y="19.539"/><use xlink:href="#12" y="21.71"/><use xlink:href="#1" y="28.223"/><use xlink:href="#20" y="30.394"/><path class="i" d="M0 32.565h204v2.171H0z"/><text y="34.235" class="a">file -- file -&gt; ~/self/edam/packages/edam-completer/package.json</text><use xlink:href="#15" y="34.736"/><use xlink:href="#16" y="36.907"/><use xlink:href="#17" y="39.078"/></svg><svg x="7548"><use xlink:href="#a"/><use xlink:href="#b" x="13.996" y="30.369"/><use xlink:href="#1" y="2.171"/><use xlink:href="#4" y="4.342"/><use xlink:href="#5" y="6.513"/><use xlink:href="#6" y="8.684"/><use xlink:href="#7" y="10.855"/><use xlink:href="#8" y="13.026"/><use xlink:href="#9" y="15.197"/><use xlink:href="#10" y="17.368"/><use xlink:href="#11" y="19.539"/><use xlink:href="#12" y="21.71"/><use xlink:href="#1" y="28.223"/><use xlink:href="#20" y="30.394"/><use xlink:href="#14" y="32.565"/><use xlink:href="#21" y="34.736"/><use xlink:href="#16" y="36.907"/><use xlink:href="#17" y="39.078"/></svg><svg x="7752"><use xlink:href="#a"/><use xlink:href="#b" x="-.004" y="32.54"/><use xlink:href="#1" y="2.171"/><use xlink:href="#4" y="4.342"/><use xlink:href="#5" y="6.513"/><use xlink:href="#6" y="8.684"/><use xlink:href="#7" y="10.855"/><use xlink:href="#8" y="13.026"/><use xlink:href="#9" y="15.197"/><use xlink:href="#10" y="17.368"/><use xlink:href="#11" y="19.539"/><use xlink:href="#12" y="21.71"/><use xlink:href="#1" y="28.223"/><use xlink:href="#22" y="30.394"/><use xlink:href="#14" y="32.565"/><use xlink:href="#21" y="34.736"/><use xlink:href="#16" y="36.907"/><use xlink:href="#17" y="39.078"/></svg><svg x="7956"><use xlink:href="#a"/><use xlink:href="#b" x="11.996" y="30.369"/><use xlink:href="#1" y="2.171"/><use xlink:href="#4" y="4.342"/><use xlink:href="#5" y="6.513"/><use xlink:href="#6" y="8.684"/><use xlink:href="#7" y="10.855"/><use xlink:href="#8" y="13.026"/><use xlink:href="#9" y="15.197"/><use xlink:href="#10" y="17.368"/><use xlink:href="#11" y="19.539"/><use xlink:href="#12" y="21.71"/><use xlink:href="#1" y="28.223"/><use xlink:href="#22" y="30.394"/><use xlink:href="#14" y="32.565"/><use xlink:href="#15" y="34.736"/><use xlink:href="#23" y="36.907"/><use xlink:href="#17" y="39.078"/></svg><svg x="8160"><use xlink:href="#a"/><use xlink:href="#b" x="-.004" y="32.54"/><use xlink:href="#1" y="2.171"/><use xlink:href="#4" y="4.342"/><use xlink:href="#5" y="6.513"/><use xlink:href="#6" y="8.684"/><use xlink:href="#7" y="10.855"/><use xlink:href="#8" y="13.026"/><use xlink:href="#9" y="15.197"/><use xlink:href="#10" y="17.368"/><use xlink:href="#11" y="19.539"/><use xlink:href="#12" y="21.71"/><use xlink:href="#1" y="28.223"/><use xlink:href="#20" y="30.394"/><use xlink:href="#14" y="32.565"/><use xlink:href="#15" y="34.736"/><use xlink:href="#23" y="36.907"/><use xlink:href="#17" y="39.078"/></svg><svg x="8364"><use xlink:href="#a"/><use xlink:href="#b" x="13.996" y="30.369"/><use xlink:href="#1" y="2.171"/><use xlink:href="#4" y="4.342"/><use xlink:href="#5" y="6.513"/><use xlink:href="#6" y="8.684"/><use xlink:href="#7" y="10.855"/><use xlink:href="#8" y="13.026"/><use xlink:href="#9" y="15.197"/><use xlink:href="#10" y="17.368"/><use xlink:href="#11" y="19.539"/><use xlink:href="#12" y="21.71"/><use xlink:href="#1" y="28.223"/><use xlink:href="#20" y="30.394"/><use xlink:href="#14" y="32.565"/><use xlink:href="#21" y="34.736"/><use xlink:href="#16" y="36.907"/><use xlink:href="#17" y="39.078"/></svg><svg x="8568"><use xlink:href="#a"/><use xlink:href="#b" x="14.996" y="30.369"/><use xlink:href="#1" y="2.171"/><use xlink:href="#4" y="4.342"/><use xlink:href="#5" y="6.513"/><use xlink:href="#6" y="8.684"/><use xlink:href="#7" y="10.855"/><use xlink:href="#8" y="13.026"/><use xlink:href="#9" y="15.197"/><use xlink:href="#10" y="17.368"/><use xlink:href="#11" y="19.539"/><use xlink:href="#12" y="21.71"/><use xlink:href="#1" y="28.223"/><use xlink:href="#20" y="30.394"/></svg><svg x="8772"><use xlink:href="#a"/><use xlink:href="#b" x="15.996" y="30.369"/><use xlink:href="#1" y="2.171"/><use xlink:href="#4" y="4.342"/><use xlink:href="#5" y="6.513"/><use xlink:href="#6" y="8.684"/><use xlink:href="#7" y="10.855"/><use xlink:href="#8" y="13.026"/><use xlink:href="#9" y="15.197"/><use xlink:href="#10" y="17.368"/><use xlink:href="#11" y="19.539"/><use xlink:href="#12" y="21.71"/><use xlink:href="#1" y="28.223"/><text y="32.064" class="h">▶</text><text x="2.004" y="32.064" class="i">edam</text><text x="7.014" y="32.064" class="i">picidae</text><text x="15.03" y="32.064" class="i">-</text></svg><svg x="8976"><use xlink:href="#a"/><use xlink:href="#b" x="16.996" y="30.369"/><use xlink:href="#1" y="2.171"/><use xlink:href="#4" y="4.342"/><use xlink:href="#5" y="6.513"/><use xlink:href="#6" y="8.684"/><use xlink:href="#7" y="10.855"/><use xlink:href="#8" y="13.026"/><use xlink:href="#9" y="15.197"/><use xlink:href="#10" y="17.368"/><use xlink:href="#11" y="19.539"/><use xlink:href="#12" y="21.71"/><use xlink:href="#1" y="28.223"/><use xlink:href="#24" y="30.394"/></svg><svg x="9180"><use xlink:href="#a"/><use xlink:href="#b" x="17.996" y="30.369"/><use xlink:href="#1" y="2.171"/><use xlink:href="#4" y="4.342"/><use xlink:href="#5" y="6.513"/><use xlink:href="#6" y="8.684"/><use xlink:href="#7" y="10.855"/><use xlink:href="#8" y="13.026"/><use xlink:href="#9" y="15.197"/><use xlink:href="#10" y="17.368"/><use xlink:href="#11" y="19.539"/><use xlink:href="#12" y="21.71"/><use xlink:href="#1" y="28.223"/><use xlink:href="#24" y="30.394"/></svg><svg x="9384"><use xlink:href="#a"/><use xlink:href="#b" x="-.004" y="32.54"/><use xlink:href="#1" y="2.171"/><use xlink:href="#4" y="4.342"/><use xlink:href="#5" y="6.513"/><use xlink:href="#6" y="8.684"/><use xlink:href="#7" y="10.855"/><use xlink:href="#8" y="13.026"/><use xlink:href="#9" y="15.197"/><use xlink:href="#10" y="17.368"/><use xlink:href="#11" y="19.539"/><use xlink:href="#12" y="21.71"/><use xlink:href="#1" y="28.223"/><use xlink:href="#24" y="30.394"/></svg><svg x="9588"><use xlink:href="#a"/><use xlink:href="#b" x="17.996" y="30.369"/><use xlink:href="#1" y="2.171"/><use xlink:href="#4" y="4.342"/><use xlink:href="#5" y="6.513"/><use xlink:href="#6" y="8.684"/><use xlink:href="#7" y="10.855"/><use xlink:href="#8" y="13.026"/><use xlink:href="#9" y="15.197"/><use xlink:href="#10" y="17.368"/><use xlink:href="#11" y="19.539"/><use xlink:href="#12" y="21.71"/><use xlink:href="#1" y="28.223"/><use xlink:href="#24" y="30.394"/><use xlink:href="#25" y="32.565"/></svg><svg x="9792"><use xlink:href="#a"/><use xlink:href="#b" x="-.004" y="32.54"/><use xlink:href="#1" y="2.171"/><use xlink:href="#4" y="4.342"/><use xlink:href="#5" y="6.513"/><use xlink:href="#6" y="8.684"/><use xlink:href="#7" y="10.855"/><use xlink:href="#8" y="13.026"/><use xlink:href="#9" y="15.197"/><use xlink:href="#10" y="17.368"/><use xlink:href="#11" y="19.539"/><use xlink:href="#12" y="21.71"/><use xlink:href="#1" y="28.223"/><use xlink:href="#26" y="30.394"/><use xlink:href="#25" y="32.565"/></svg><svg x="9996"><use xlink:href="#a"/><use xlink:href="#b" x="-.004" y="32.54"/><use xlink:href="#1" y="2.171"/><use xlink:href="#4" y="4.342"/><use xlink:href="#5" y="6.513"/><use xlink:href="#6" y="8.684"/><use xlink:href="#7" y="10.855"/><use xlink:href="#8" y="13.026"/><use xlink:href="#9" y="15.197"/><use xlink:href="#10" y="17.368"/><use xlink:href="#11" y="19.539"/><use xlink:href="#12" y="21.71"/><use xlink:href="#1" y="28.223"/><use xlink:href="#26" y="30.394"/><use xlink:href="#27" y="32.565"/></svg><svg x="10200"><use xlink:href="#a"/><use xlink:href="#b" x="34.996" y="30.369"/><use xlink:href="#1" y="2.171"/><use xlink:href="#4" y="4.342"/><use xlink:href="#5" y="6.513"/><use xlink:href="#6" y="8.684"/><use xlink:href="#7" y="10.855"/><use xlink:href="#8" y="13.026"/><use xlink:href="#9" y="15.197"/><use xlink:href="#10" y="17.368"/><use xlink:href="#11" y="19.539"/><use xlink:href="#12" y="21.71"/><use xlink:href="#1" y="28.223"/><use xlink:href="#26" y="30.394"/><use xlink:href="#27" y="32.565"/></svg><svg x="10404"><use xlink:href="#a"/><use xlink:href="#b" x="-.004" y="32.54"/><use xlink:href="#1" y="2.171"/><use xlink:href="#4" y="4.342"/><use xlink:href="#5" y="6.513"/><use xlink:href="#6" y="8.684"/><use xlink:href="#7" y="10.855"/><use xlink:href="#8" y="13.026"/><use xlink:href="#9" y="15.197"/><use xlink:href="#10" y="17.368"/><use xlink:href="#11" y="19.539"/><use xlink:href="#12" y="21.71"/><use xlink:href="#1" y="28.223"/><use xlink:href="#28" y="30.394"/><use xlink:href="#27" y="32.565"/></svg><svg x="10608"><use xlink:href="#a"/><use xlink:href="#b" x="-.004" y="32.54"/><use xlink:href="#1" y="2.171"/><use xlink:href="#4" y="4.342"/><use xlink:href="#5" y="6.513"/><use xlink:href="#6" y="8.684"/><use xlink:href="#7" y="10.855"/><use xlink:href="#8" y="13.026"/><use xlink:href="#9" y="15.197"/><use xlink:href="#10" y="17.368"/><use xlink:href="#11" y="19.539"/><use xlink:href="#12" y="21.71"/><use xlink:href="#1" y="28.223"/><use xlink:href="#29" y="30.394"/><use xlink:href="#30" y="32.565"/></svg><svg x="10812"><use xlink:href="#a"/><use xlink:href="#b" x="29.996" y="30.369"/><use xlink:href="#1" y="2.171"/><use xlink:href="#4" y="4.342"/><use xlink:href="#5" y="6.513"/><use xlink:href="#6" y="8.684"/><use xlink:href="#7" y="10.855"/><use xlink:href="#8" y="13.026"/><use xlink:href="#9" y="15.197"/><use xlink:href="#10" y="17.368"/><use xlink:href="#11" y="19.539"/><use xlink:href="#12" y="21.71"/><use xlink:href="#1" y="28.223"/><use xlink:href="#29" y="30.394"/><use xlink:href="#31" y="32.565"/></svg><svg x="11016"><use xlink:href="#a"/><use xlink:href="#b" x="-.004" y="32.54"/><use xlink:href="#1" y="2.171"/><use xlink:href="#4" y="4.342"/><use xlink:href="#5" y="6.513"/><use xlink:href="#6" y="8.684"/><use xlink:href="#7" y="10.855"/><use xlink:href="#8" y="13.026"/><use xlink:href="#9" y="15.197"/><use xlink:href="#10" y="17.368"/><use xlink:href="#11" y="19.539"/><use xlink:href="#12" y="21.71"/><use xlink:href="#1" y="28.223"/><use xlink:href="#32" y="30.394"/><use xlink:href="#31" y="32.565"/></svg><svg x="11220"><use xlink:href="#a"/><use xlink:href="#b" x="29.996" y="30.369"/><use xlink:href="#1" y="2.171"/><use xlink:href="#4" y="4.342"/><use xlink:href="#5" y="6.513"/><use xlink:href="#6" y="8.684"/><use xlink:href="#7" y="10.855"/><use xlink:href="#8" y="13.026"/><use xlink:href="#9" y="15.197"/><use xlink:href="#10" y="17.368"/><use xlink:href="#11" y="19.539"/><use xlink:href="#12" y="21.71"/><use xlink:href="#1" y="28.223"/><use xlink:href="#32" y="30.394"/><use xlink:href="#33" y="32.565"/></svg><svg x="11424"><use xlink:href="#a"/><use xlink:href="#b" x="-.004" y="32.54"/><use xlink:href="#1" y="2.171"/><use xlink:href="#4" y="4.342"/><use xlink:href="#5" y="6.513"/><use xlink:href="#6" y="8.684"/><use xlink:href="#7" y="10.855"/><use xlink:href="#8" y="13.026"/><use xlink:href="#9" y="15.197"/><use xlink:href="#10" y="17.368"/><use xlink:href="#11" y="19.539"/><use xlink:href="#12" y="21.71"/><use xlink:href="#1" y="28.223"/><use xlink:href="#29" y="30.394"/><use xlink:href="#33" y="32.565"/></svg><svg x="11628"><use xlink:href="#a"/><use xlink:href="#b" x="29.996" y="30.369"/><use xlink:href="#1" y="2.171"/><use xlink:href="#4" y="4.342"/><use xlink:href="#5" y="6.513"/><use xlink:href="#6" y="8.684"/><use xlink:href="#7" y="10.855"/><use xlink:href="#8" y="13.026"/><use xlink:href="#9" y="15.197"/><use xlink:href="#10" y="17.368"/><use xlink:href="#11" y="19.539"/><use xlink:href="#12" y="21.71"/><use xlink:href="#1" y="28.223"/><use xlink:href="#29" y="30.394"/><use xlink:href="#31" y="32.565"/></svg><svg x="11832"><use xlink:href="#a"/><use xlink:href="#b" x="-.004" y="32.54"/><use xlink:href="#1" y="2.171"/><use xlink:href="#4" y="4.342"/><use xlink:href="#5" y="6.513"/><use xlink:href="#6" y="8.684"/><use xlink:href="#7" y="10.855"/><use xlink:href="#8" y="13.026"/><use xlink:href="#9" y="15.197"/><use xlink:href="#10" y="17.368"/><use xlink:href="#11" y="19.539"/><use xlink:href="#12" y="21.71"/><use xlink:href="#1" y="28.223"/><use xlink:href="#28" y="30.394"/><use xlink:href="#31" y="32.565"/></svg><svg x="12036"><use xlink:href="#a"/><use xlink:href="#b" x="30.996" y="30.369"/><use xlink:href="#1" y="2.171"/><use xlink:href="#4" y="4.342"/><use xlink:href="#5" y="6.513"/><use xlink:href="#6" y="8.684"/><use xlink:href="#7" y="10.855"/><use xlink:href="#8" y="13.026"/><use xlink:href="#9" y="15.197"/><use xlink:href="#10" y="17.368"/><use xlink:href="#11" y="19.539"/><use xlink:href="#12" y="21.71"/><use xlink:href="#1" y="28.223"/><use xlink:href="#28" y="30.394"/><use xlink:href="#30" y="32.565"/></svg><svg x="12240"><use xlink:href="#a"/><use xlink:href="#b" x="-.004" y="32.54"/><use xlink:href="#1" y="2.171"/><use xlink:href="#4" y="4.342"/><use xlink:href="#5" y="6.513"/><use xlink:href="#6" y="8.684"/><use xlink:href="#7" y="10.855"/><use xlink:href="#8" y="13.026"/><use xlink:href="#9" y="15.197"/><use xlink:href="#10" y="17.368"/><use xlink:href="#11" y="19.539"/><use xlink:href="#12" y="21.71"/><use xlink:href="#1" y="28.223"/><use xlink:href="#26" y="30.394"/><use xlink:href="#30" y="32.565"/></svg><svg x="12444"><use xlink:href="#a"/><use xlink:href="#b" x="34.996" y="30.369"/><use xlink:href="#1" y="2.171"/><use xlink:href="#4" y="4.342"/><use xlink:href="#5" y="6.513"/><use xlink:href="#6" y="8.684"/><use xlink:href="#7" y="10.855"/><use xlink:href="#8" y="13.026"/><use xlink:href="#9" y="15.197"/><use xlink:href="#10" y="17.368"/><use xlink:href="#11" y="19.539"/><use xlink:href="#12" y="21.71"/><use xlink:href="#1" y="28.223"/><use xlink:href="#26" y="30.394"/><use xlink:href="#27" y="32.565"/></svg><svg x="12648"><use xlink:href="#a"/><use xlink:href="#b" x="-.004" y="32.54"/><use xlink:href="#1" y="2.171"/><use xlink:href="#4" y="4.342"/><use xlink:href="#5" y="6.513"/><use xlink:href="#6" y="8.684"/><use xlink:href="#7" y="10.855"/><use xlink:href="#8" y="13.026"/><use xlink:href="#9" y="15.197"/><use xlink:href="#10" y="17.368"/><use xlink:href="#11" y="19.539"/><use xlink:href="#12" y="21.71"/><use xlink:href="#1" y="28.223"/><use xlink:href="#28" y="30.394"/><use xlink:href="#27" y="32.565"/></svg><svg x="12852"><use xlink:href="#a"/><use xlink:href="#b" x="30.996" y="30.369"/><use xlink:href="#1" y="2.171"/><use xlink:href="#4" y="4.342"/><use xlink:href="#5" y="6.513"/><use xlink:href="#6" y="8.684"/><use xlink:href="#7" y="10.855"/><use xlink:href="#8" y="13.026"/><use xlink:href="#9" y="15.197"/><use xlink:href="#10" y="17.368"/><use xlink:href="#11" y="19.539"/><use xlink:href="#12" y="21.71"/><use xlink:href="#1" y="28.223"/><use xlink:href="#28" y="30.394"/><use xlink:href="#30" y="32.565"/></svg><svg x="13056"><use xlink:href="#a"/><use xlink:href="#b" x="-.004" y="32.54"/><use xlink:href="#1" y="2.171"/><use xlink:href="#4" y="4.342"/><use xlink:href="#5" y="6.513"/><use xlink:href="#6" y="8.684"/><use xlink:href="#7" y="10.855"/><use xlink:href="#8" y="13.026"/><use xlink:href="#9" y="15.197"/><use xlink:href="#10" y="17.368"/><use xlink:href="#11" y="19.539"/><use xlink:href="#12" y="21.71"/><use xlink:href="#1" y="28.223"/><use xlink:href="#29" y="30.394"/><use xlink:href="#30" y="32.565"/></svg><svg x="13260"><use xlink:href="#a"/><use xlink:href="#b" x="29.996" y="30.369"/><use xlink:href="#1" y="2.171"/><use xlink:href="#4" y="4.342"/><use xlink:href="#5" y="6.513"/><use xlink:href="#6" y="8.684"/><use xlink:href="#7" y="10.855"/><use xlink:href="#8" y="13.026"/><use xlink:href="#9" y="15.197"/><use xlink:href="#10" y="17.368"/><use xlink:href="#11" y="19.539"/><use xlink:href="#12" y="21.71"/><use xlink:href="#1" y="28.223"/><use xlink:href="#29" y="30.394"/><use xlink:href="#31" y="32.565"/></svg><svg x="13464"><use xlink:href="#a"/><use xlink:href="#b" x="30.996" y="30.369"/><use xlink:href="#1" y="2.171"/><use xlink:href="#4" y="4.342"/><use xlink:href="#5" y="6.513"/><use xlink:href="#6" y="8.684"/><use xlink:href="#7" y="10.855"/><use xlink:href="#8" y="13.026"/><use xlink:href="#9" y="15.197"/><use xlink:href="#10" y="17.368"/><use xlink:href="#11" y="19.539"/><use xlink:href="#12" y="21.71"/><use xlink:href="#1" y="28.223"/><use xlink:href="#29" y="30.394"/></svg><svg x="13668"><use xlink:href="#a"/><use xlink:href="#b" x="1.996" y="30.369"/><use xlink:href="#1" y="2.171"/><use xlink:href="#4" y="4.342"/><use xlink:href="#5" y="6.513"/><use xlink:href="#6" y="8.684"/><use xlink:href="#7" y="10.855"/><use xlink:href="#8" y="13.026"/><use xlink:href="#9" y="15.197"/><use xlink:href="#10" y="17.368"/><use xlink:href="#11" y="19.539"/><use xlink:href="#12" y="21.71"/><use xlink:href="#1" y="28.223"/><use xlink:href="#2" y="30.394"/></svg><svg x="13872"><use xlink:href="#a"/><use xlink:href="#b" x="-.004" y="32.54"/><use xlink:href="#1" y="2.171"/><use xlink:href="#4" y="4.342"/><use xlink:href="#5" y="6.513"/><use xlink:href="#6" y="8.684"/><use xlink:href="#7" y="10.855"/><use xlink:href="#8" y="13.026"/><use xlink:href="#9" y="15.197"/><use xlink:href="#10" y="17.368"/><use xlink:href="#11" y="19.539"/><use xlink:href="#12" y="21.71"/><use xlink:href="#1" y="28.223"/><use xlink:href="#2" y="30.394"/></svg></svg></g></g></svg></svg>